<svg width="701" height="131" xmlns="http://www.w3.org/2000/svg">
  <g fill="none" fill-rule="evenodd">
    <circle fill="#F11F96" cx="664" cy="43" r="9"/>
    <circle fill="#9B9B9B" cx="350.5" cy="42.5" r="35.5"/>
    <circle fill="#070707" cx="42.5" cy="42.5" r="42.5"/>
    <path d="M6.935 121.64H4.589l-.618 3.097h2.346l.618-3.097zm3.591-1.245l-.123.713c-.032.184-.107.318-.224.404-.117.085-.296.128-.537.128h-1.31l-.618 3.097h1.7c.184 0 .316.052.395.157.079.104.1.286.062.546l-.086.541H7.533L6.736 130h-.769a.468.468 0 0 1-.228-.057.541.541 0 0 1-.276-.38.766.766 0 0 1 0-.294l.675-3.288H3.791l-.675 3.373c-.038.234-.13.4-.276.499a.864.864 0 0 1-.494.147h-.76l.808-4.019H1.007c-.177 0-.306-.052-.385-.156-.079-.105-.1-.287-.061-.547l.075-.541h1.939l.617-3.097H.988l.123-.703c.032-.184.107-.32.224-.409.117-.088.296-.133.536-.133h1.502l.683-3.4a.73.73 0 0 1 .751-.609h.76l-.798 4.01h2.346l.798-4.01h.751c.184 0 .328.06.432.181.105.12.141.272.11.456l-.694 3.373h2.014zm10.944 2.803c0 1.19-.128 2.221-.385 3.092-.256.871-.606 1.591-1.05 2.162-.443.57-.967.994-1.572 1.273a4.587 4.587 0 0 1-1.943.418c-.696 0-1.344-.14-1.942-.418a4.24 4.24 0 0 1-1.563-1.273c-.443-.57-.792-1.29-1.045-2.162-.253-.87-.38-1.901-.38-3.092 0-1.19.127-2.223.38-3.097.253-.874.602-1.598 1.045-2.17.443-.574.964-1 1.563-1.278a4.545 4.545 0 0 1 1.942-.419c.69 0 1.338.14 1.943.419a4.201 4.201 0 0 1 1.572 1.277c.444.573.794 1.297 1.05 2.171.257.874.385 1.906.385 3.097zm-1.758 0c0-1.039-.087-1.911-.26-2.617-.175-.706-.41-1.275-.704-1.706-.294-.43-.635-.739-1.021-.926a2.739 2.739 0 0 0-2.413 0c-.386.187-.725.496-1.017.927-.29.43-.524.999-.698 1.705-.174.706-.261 1.578-.261 2.617s.087 1.91.261 2.613c.174.703.407 1.27.698 1.7.292.43.63.74 1.017.926a2.739 2.739 0 0 0 2.413 0c.386-.187.727-.495 1.021-.926.295-.43.53-.997.703-1.7.174-.704.261-1.574.261-2.613zm12.598-6.811v.76c0 .215-.024.392-.072.531-.047.14-.093.257-.138.352l-5.643 11.371a1.26 1.26 0 0 1-.341.423c-.146.117-.34.176-.58.176H24.32l5.719-11.229a4.244 4.244 0 0 1 .541-.817h-7.106a.385.385 0 0 1-.285-.128.407.407 0 0 1-.123-.29v-1.15h9.244zm11.2 6.811c0 1.19-.128 2.221-.385 3.092-.256.871-.606 1.591-1.05 2.162-.443.57-.967.994-1.572 1.273a4.587 4.587 0 0 1-1.943.418c-.696 0-1.344-.14-1.942-.418a4.24 4.24 0 0 1-1.563-1.273c-.443-.57-.792-1.29-1.045-2.162-.253-.87-.38-1.901-.38-3.092 0-1.19.127-2.223.38-3.097.253-.874.602-1.598 1.045-2.17.443-.574.964-1 1.563-1.278a4.545 4.545 0 0 1 1.942-.419c.69 0 1.338.14 1.943.419a4.201 4.201 0 0 1 1.572 1.277c.444.573.794 1.297 1.05 2.171.257.874.385 1.906.385 3.097zm-1.758 0c0-1.039-.087-1.911-.26-2.617-.175-.706-.41-1.275-.704-1.706-.294-.43-.635-.739-1.021-.926a2.739 2.739 0 0 0-2.413 0c-.386.187-.725.496-1.017.927-.29.43-.524.999-.698 1.705-.174.706-.261 1.578-.261 2.617s.087 1.91.261 2.613c.174.703.407 1.27.698 1.7.292.43.63.74 1.017.926a2.739 2.739 0 0 0 2.413 0c.386-.187.727-.495 1.021-.926.295-.43.53-.997.703-1.7.174-.704.261-1.574.261-2.613zm12.597-6.811v.76c0 .215-.023.392-.07.531-.048.14-.094.257-.139.352l-5.642 11.371a1.26 1.26 0 0 1-.342.423c-.146.117-.34.176-.58.176H46.36l5.719-11.229a4.244 4.244 0 0 1 .541-.817h-7.105a.385.385 0 0 1-.285-.128.407.407 0 0 1-.124-.29v-1.15h9.243zm11.201 6.811c0 1.19-.128 2.221-.385 3.092-.256.871-.606 1.591-1.05 2.162-.443.57-.967.994-1.572 1.273a4.587 4.587 0 0 1-1.943.418c-.696 0-1.344-.14-1.942-.418a4.24 4.24 0 0 1-1.563-1.273c-.443-.57-.792-1.29-1.045-2.162-.253-.87-.38-1.901-.38-3.092 0-1.19.127-2.223.38-3.097.253-.874.602-1.598 1.045-2.17.443-.574.964-1 1.563-1.278a4.545 4.545 0 0 1 1.942-.419c.69 0 1.338.14 1.943.419a4.201 4.201 0 0 1 1.572 1.277c.444.573.794 1.297 1.05 2.171.257.874.385 1.906.385 3.097zm-1.758 0c0-1.039-.087-1.911-.26-2.617-.175-.706-.41-1.275-.704-1.706-.294-.43-.635-.739-1.021-.926a2.739 2.739 0 0 0-2.413 0c-.386.187-.725.496-1.017.927-.29.43-.524.999-.698 1.705-.174.706-.261 1.578-.261 2.617s.087 1.91.261 2.613c.174.703.407 1.27.698 1.7.292.43.63.74 1.017.926a2.739 2.739 0 0 0 2.413 0c.386-.187.727-.495 1.021-.926.295-.43.53-.997.703-1.7.174-.704.261-1.574.261-2.613zm12.597-6.811v.76c0 .215-.023.392-.07.531-.048.14-.094.257-.139.352l-5.643 11.371a1.26 1.26 0 0 1-.342.423c-.145.117-.338.176-.579.176H68.4l5.719-11.229a4.244 4.244 0 0 1 .541-.817h-7.106a.385.385 0 0 1-.285-.128.407.407 0 0 1-.123-.29v-1.15h9.243zM316.935 121.64h-2.346l-.618 3.097h2.346l.618-3.097zm3.591-1.245l-.124.713c-.031.184-.106.318-.223.404-.117.085-.296.128-.536.128h-1.311l-.618 3.097h1.7c.184 0 .316.052.395.157.079.104.1.286.061.546l-.085.541h-2.252l-.798 4.019h-.769a.468.468 0 0 1-.228-.057.541.541 0 0 1-.276-.38.766.766 0 0 1 0-.294l.675-3.288h-2.346l-.675 3.373c-.038.234-.13.4-.275.499a.864.864 0 0 1-.495.147h-.76l.808-4.019h-1.387c-.177 0-.306-.052-.385-.156-.079-.105-.1-.287-.062-.547l.077-.541h1.938l.617-3.097h-2.204l.123-.703c.032-.184.107-.32.224-.409.117-.088.296-.133.537-.133h1.5l.685-3.4a.73.73 0 0 1 .75-.609h.76l-.798 4.01h2.346l.798-4.01h.751c.184 0 .328.06.432.181.105.12.141.272.11.456l-.694 3.373h2.014zm3.183-.009c0 .43.061.815.185 1.154.123.34.3.626.532.86.23.234.513.412.845.532.333.12.705.18 1.116.18.457 0 .86-.074 1.212-.223.351-.149.647-.346.888-.593.24-.248.424-.532.551-.856.127-.323.19-.658.19-1.007 0-.424-.068-.809-.204-1.154a2.546 2.546 0 0 0-.565-.879 2.47 2.47 0 0 0-.86-.555 2.992 2.992 0 0 0-1.097-.195c-.419 0-.798.068-1.14.204a2.66 2.66 0 0 0-.884.566c-.247.24-.437.528-.57.864-.133.336-.2.703-.2 1.102zm3.952 4.19c.139-.184.269-.358.389-.523.12-.165.234-.33.342-.494-.348.279-.741.49-1.178.636-.437.146-.9.219-1.387.219-.513 0-1-.085-1.458-.257a3.507 3.507 0 0 1-1.212-.755 3.632 3.632 0 0 1-.83-1.225c-.207-.485-.31-1.04-.31-1.668 0-.595.111-1.152.333-1.671.222-.52.532-.973.931-1.359s.874-.69 1.425-.912a4.818 4.818 0 0 1 1.815-.332c.652 0 1.244.107 1.776.323.532.215.988.516 1.368.902.38.386.673.849.879 1.387.206.538.309 1.134.309 1.786 0 .393-.037.765-.11 1.116a6.081 6.081 0 0 1-.313 1.036 7.43 7.43 0 0 1-.499 1.007c-.196.332-.418.673-.665 1.021l-3.316 4.788a.868.868 0 0 1-.351.29c-.152.073-.326.109-.522.109h-1.558l4.142-5.424zm10.896 3.961c.526 0 .978-.06 1.358-.18.38-.12.692-.29.936-.509a1.97 1.97 0 0 0 .537-.779c.114-.3.171-.631.171-.993 0-.703-.25-1.258-.75-1.667-.5-.408-1.251-.613-2.252-.613h-2.945v4.741h2.945zm-2.945-10.697v4.645h2.432c.52 0 .97-.056 1.354-.17.383-.115.7-.273.95-.475.25-.203.435-.449.555-.737.12-.288.181-.603.181-.945 0-.804-.24-1.392-.722-1.762-.481-.37-1.229-.556-2.242-.556h-2.508zm2.508-1.454c.836 0 1.556.083 2.161.248.605.164 1.102.398 1.492.703.39.304.676.676.86 1.116.183.44.275.935.275 1.486a2.893 2.893 0 0 1-.627 1.824 3.354 3.354 0 0 1-.793.718c-.32.212-.695.384-1.126.518 1 .19 1.753.546 2.256 1.068.504.523.755 1.208.755 2.057 0 .576-.106 1.102-.318 1.577a3.379 3.379 0 0 1-.93 1.226c-.41.342-.911.606-1.507.793-.595.187-1.272.28-2.032.28h-4.808v-13.614h4.342zm8.892 4c0 .43.062.815.185 1.154.124.34.301.626.532.86.231.234.513.412.846.532.332.12.704.18 1.116.18.456 0 .86-.074 1.211-.223.352-.149.648-.346.889-.593.24-.248.424-.532.55-.856.127-.323.19-.658.19-1.007 0-.424-.068-.809-.204-1.154a2.546 2.546 0 0 0-.565-.879 2.47 2.47 0 0 0-.86-.555 2.992 2.992 0 0 0-1.097-.195c-.418 0-.798.068-1.14.204a2.66 2.66 0 0 0-.884.566c-.247.24-.436.528-.57.864-.133.336-.199.703-.199 1.102zm3.952 4.19c.14-.184.27-.358.39-.523.12-.165.234-.33.341-.494-.348.279-.74.49-1.178.636-.437.146-.899.219-1.387.219-.513 0-.999-.085-1.458-.257a3.507 3.507 0 0 1-1.211-.755 3.632 3.632 0 0 1-.831-1.225c-.206-.485-.309-1.04-.309-1.668 0-.595.11-1.152.332-1.671.222-.52.532-.973.931-1.359.4-.386.874-.69 1.425-.912a4.818 4.818 0 0 1 1.815-.332c.652 0 1.244.107 1.776.323.533.215.988.516 1.368.902.38.386.673.849.88 1.387.205.538.308 1.134.308 1.786 0 .393-.036.765-.11 1.116a6.081 6.081 0 0 1-.313 1.036 7.43 7.43 0 0 1-.498 1.007c-.197.332-.418.673-.666 1.021l-3.315 4.788a.868.868 0 0 1-.352.29c-.152.073-.326.109-.522.109h-1.558l4.142-5.424zm10.897 3.961c.525 0 .978-.06 1.358-.18.38-.12.692-.29.936-.509a1.97 1.97 0 0 0 .537-.779c.114-.3.17-.631.17-.993 0-.703-.25-1.258-.75-1.667-.5-.408-1.25-.613-2.252-.613h-2.945v4.741h2.945zm-2.945-10.697v4.645h2.432c.519 0 .97-.056 1.353-.17.383-.115.7-.273.95-.475.25-.203.436-.449.556-.737.12-.288.18-.603.18-.945 0-.804-.24-1.392-.721-1.762-.482-.37-1.23-.556-2.243-.556h-2.507zm2.507-1.454c.837 0 1.557.083 2.162.248.605.164 1.102.398 1.491.703.39.304.676.676.86 1.116.184.44.276.935.276 1.486a2.893 2.893 0 0 1-.627 1.824 3.354 3.354 0 0 1-.794.718c-.32.212-.695.384-1.125.518 1 .19 1.752.546 2.256 1.068.503.523.755 1.208.755 2.057 0 .576-.106 1.102-.318 1.577a3.379 3.379 0 0 1-.931 1.226c-.409.342-.91.606-1.506.793-.595.187-1.273.28-2.033.28h-4.807v-13.614h4.341zm8.892 4c0 .43.062.815.186 1.154.123.34.3.626.532.86.23.234.513.412.845.532.333.12.705.18 1.117.18.456 0 .86-.074 1.21-.223.352-.149.648-.346.889-.593.24-.248.424-.532.551-.856.127-.323.19-.658.19-1.007 0-.424-.068-.809-.204-1.154a2.546 2.546 0 0 0-.565-.879 2.47 2.47 0 0 0-.86-.555 2.992 2.992 0 0 0-1.098-.195c-.418 0-.797.068-1.14.204a2.66 2.66 0 0 0-.883.566c-.247.24-.437.528-.57.864-.133.336-.2.703-.2 1.102zm3.952 4.19c.14-.184.27-.358.39-.523.12-.165.234-.33.342-.494-.348.279-.741.49-1.178.636-.437.146-.9.219-1.387.219-.513 0-1-.085-1.458-.257a3.507 3.507 0 0 1-1.212-.755 3.632 3.632 0 0 1-.83-1.225c-.207-.485-.31-1.04-.31-1.668 0-.595.111-1.152.333-1.671.222-.52.532-.973.931-1.359s.874-.69 1.425-.912a4.818 4.818 0 0 1 1.815-.332c.652 0 1.244.107 1.776.323.532.215.988.516 1.368.902.38.386.673.849.879 1.387.206.538.308 1.134.308 1.786 0 .393-.036.765-.109 1.116a6.081 6.081 0 0 1-.313 1.036 7.43 7.43 0 0 1-.499 1.007c-.196.332-.418.673-.665 1.021l-3.315 4.788a.868.868 0 0 1-.352.29c-.152.073-.326.109-.523.109h-1.558l4.142-5.424zm10.897 3.961c.526 0 .978-.06 1.358-.18.38-.12.692-.29.936-.509a1.97 1.97 0 0 0 .537-.779c.114-.3.171-.631.171-.993 0-.703-.25-1.258-.75-1.667-.5-.408-1.251-.613-2.252-.613h-2.945v4.741h2.945zm-2.945-10.697v4.645h2.432c.52 0 .97-.056 1.354-.17.383-.115.7-.273.95-.475.25-.203.435-.449.555-.737.12-.288.181-.603.181-.945 0-.804-.24-1.392-.722-1.762-.481-.37-1.229-.556-2.242-.556h-2.508zm2.508-1.454c.836 0 1.556.083 2.161.248.605.164 1.102.398 1.492.703.39.304.676.676.86 1.116.183.44.275.935.275 1.486a2.893 2.893 0 0 1-.627 1.824 3.354 3.354 0 0 1-.793.718c-.32.212-.695.384-1.126.518 1 .19 1.753.546 2.256 1.068.504.523.755 1.208.755 2.057 0 .576-.106 1.102-.318 1.577a3.379 3.379 0 0 1-.93 1.226c-.41.342-.911.606-1.507.793-.595.187-1.272.28-2.033.28h-4.807v-13.614h4.342zM631.935 121.64h-2.346l-.618 3.097h2.346l.618-3.097zm3.591-1.245l-.123.713c-.032.184-.107.318-.224.404-.117.085-.296.128-.536.128h-1.312l-.617 3.097h1.7c.184 0 .316.052.395.157.079.104.1.286.062.546l-.086.541h-2.251l-.798 4.019h-.77a.468.468 0 0 1-.228-.057.541.541 0 0 1-.276-.38.766.766 0 0 1 0-.294l.675-3.288h-2.346l-.675 3.373c-.038.234-.13.4-.275.499a.864.864 0 0 1-.495.147h-.76l.808-4.019h-1.387c-.177 0-.306-.052-.385-.156-.079-.105-.1-.287-.061-.547l.075-.541h1.938l.618-3.097h-2.204l.123-.703c.032-.184.107-.32.224-.409.117-.088.296-.133.536-.133h1.501l.685-3.4a.73.73 0 0 1 .75-.609h.76l-.798 4.01h2.346l.798-4.01h.751c.184 0 .328.06.432.181.105.12.141.272.11.456l-.694 3.373h2.014zm4.076-2.507v4.759h5.595v1.501h-5.596V130h-1.842v-13.614h8.388v1.502h-6.546zm16.834 10.82V130h-7.297v-1.292h2.917v-9.281c0-.28.01-.561.029-.846l-2.423 2.08a.547.547 0 0 1-.475.133.544.544 0 0 1-.332-.199l-.533-.731 4.057-3.506h1.377v12.35h2.68zm11.02 0V130h-7.297v-1.292h2.917v-9.281c0-.28.01-.561.029-.846l-2.423 2.08a.547.547 0 0 1-.475.133.544.544 0 0 1-.332-.199l-.533-.731 4.057-3.506h1.378v12.35h2.678zm4.93-10.82v4.759h5.596v1.501h-5.596V130h-1.843v-13.614h8.389v1.502h-6.546zm9.851 2.498c0 .43.062.815.186 1.154.123.34.3.626.532.86.23.234.513.412.845.532.333.12.705.18 1.117.18.456 0 .86-.074 1.21-.223.352-.149.648-.346.889-.593.24-.248.424-.532.551-.856.127-.323.19-.658.19-1.007 0-.424-.068-.809-.204-1.154a2.546 2.546 0 0 0-.566-.879 2.47 2.47 0 0 0-.86-.555 2.992 2.992 0 0 0-1.096-.195c-.419 0-.798.068-1.14.204a2.66 2.66 0 0 0-.884.566c-.247.24-.437.528-.57.864-.133.336-.2.703-.2 1.102zm3.952 4.19c.14-.184.27-.358.39-.523.12-.165.234-.33.342-.494-.348.279-.741.49-1.178.636-.437.146-.9.219-1.387.219-.513 0-1-.085-1.458-.257a3.507 3.507 0 0 1-1.212-.755 3.632 3.632 0 0 1-.83-1.225c-.207-.485-.31-1.04-.31-1.668 0-.595.111-1.152.333-1.671.222-.52.532-.973.931-1.359s.874-.69 1.425-.912a4.818 4.818 0 0 1 1.814-.332c.653 0 1.245.107 1.777.323.532.215.988.516 1.368.902.38.386.673.849.879 1.387.206.538.308 1.134.308 1.786 0 .393-.036.765-.109 1.116a6.081 6.081 0 0 1-.313 1.036 7.43 7.43 0 0 1-.499 1.007c-.196.332-.418.673-.665 1.021l-3.315 4.788a.868.868 0 0 1-.352.29c-.152.073-.326.109-.523.109h-1.558l4.142-5.424zm9.871 4.17c.456 0 .87-.073 1.24-.219a2.78 2.78 0 0 0 .95-.607c.263-.26.465-.567.608-.922a3.08 3.08 0 0 0 .214-1.159c0-.443-.07-.844-.21-1.202a2.544 2.544 0 0 0-.593-.912 2.605 2.605 0 0 0-.917-.575 3.303 3.303 0 0 0-1.168-.199c-.457 0-.868.078-1.236.233-.367.155-.679.364-.935.627a2.723 2.723 0 0 0-.59.912 2.912 2.912 0 0 0-.203 1.078c0 .437.063.836.19 1.197.126.361.311.671.555.931.244.26.542.46.893.603.352.143.752.214 1.202.214zm-.988-7.258l-.347.442c-.11.142-.217.283-.318.422a3.937 3.937 0 0 1 1.064-.513 4.23 4.23 0 0 1 1.264-.18c.55 0 1.07.09 1.558.27.487.181.913.444 1.277.79.364.344.654.769.87 1.272.215.504.322 1.078.322 1.725 0 .627-.113 1.21-.341 1.748a4.273 4.273 0 0 1-.955 1.405c-.409.4-.9.713-1.473.941a5.084 5.084 0 0 1-1.895.342c-.684 0-1.305-.11-1.862-.328a3.959 3.959 0 0 1-1.42-.93c-.39-.403-.69-.89-.903-1.464-.212-.573-.318-1.214-.318-1.924 0-.595.131-1.23.394-1.904.263-.675.683-1.395 1.259-2.162l3.458-4.645c.089-.114.21-.21.366-.29.155-.079.334-.118.537-.118h1.5l-4.037 5.101z" fill="#070707"/>
  </g>
</svg>
