<?xml version="1.0" encoding="UTF-8"?>
<svg width="701px" height="192px" viewBox="0 0 701 192" version="1.1" xmlns="http://www.w3.org/2000/svg" xmlns:xlink="http://www.w3.org/1999/xlink">
    <!-- Generator: Sketch 43.2 (39069) - http://www.bohemiancoding.com/sketch -->
    <title>Group 11</title>
    <desc>Created with Sketch.</desc>
    <defs>
        <polygon id="path-1" points="0.096661157 41.4941178 34.8744463 41.4941178 34.8744463 0.39219393 0.096661157 0.39219393"></polygon>
    </defs>
    <g id="Page-1" stroke="none" stroke-width="1" fill="none" fill-rule="evenodd">
        <g id="case-study" transform="translate(-350.000000, -7724.000000)">
            <g id="Group-11" transform="translate(350.000000, 7724.000000)">
                <g id="logodraft-1">
                    <path d="M0,1.05560928 L4.82603095,1.05560928 L4.82603095,15.2723404 C5.31740812,14.8340658 5.85888201,14.3920696 6.45059574,13.9466383 C7.04216634,13.5010638 7.66665764,13.0925609 8.32507157,12.7204139 C8.98348549,12.3488395 9.67825532,12.0458259 10.4088085,11.813234 C11.1399342,11.5800696 11.8973965,11.4644178 12.6821973,11.4644178 C13.6389014,11.4644178 14.5095822,11.6433346 15.294383,12.0023133 C16.0786112,12.3614352 16.7496209,12.8671257 17.3078414,13.5178104 C17.8660619,14.1690677 18.2984681,14.9532959 18.6037718,15.8704952 C18.9097911,16.7878375 19.0629439,17.8046576 19.0629439,18.9216712 L19.0629439,32.9994197 L14.2173037,32.9994197 L14.2173037,19.4595667 C14.2173037,18.7421818 14.1176828,18.1141122 13.9185841,17.5756441 C13.7187698,17.0370329 13.4462437,16.5885957 13.1008627,16.229617 C12.7550522,15.8704952 12.3392495,15.6015474 11.8544565,15.422058 C11.3683752,15.2425687 10.8470832,15.1531103 10.2895783,15.1531103 C9.30539265,15.1531103 8.37502515,15.4053114 7.49718762,15.9104294 C6.62049516,16.4162631 5.72948936,17.0805455 4.82603095,17.9042785 L4.82603095,32.9994197 L1.01702442e-15,32.9994197 L1.01702442e-15,1.05560928 L0,1.05560928 Z" id="Shape" fill="#373737" fill-rule="nonzero"></path>
                    <path d="M35.9458221,22.6902321 L34.6898259,22.6902321 C33.3068704,22.6902321 32.1940077,22.7868472 31.3495203,22.9793617 C30.5050329,23.1720193 29.8507698,23.4381044 29.3855861,23.7767582 C28.9204023,24.1161277 28.6108046,24.5080271 28.4582244,24.9534584 C28.3049284,25.3990329 28.2292108,25.8808201 28.2292108,26.3991064 C28.2292108,26.9441586 28.3085068,27.4225106 28.4682437,27.8345919 C28.6275513,28.2466731 28.8439691,28.5920542 29.1166383,28.8717369 C29.3885919,29.1508472 29.7112147,29.3631141 30.0833617,29.5098259 C30.4555087,29.6559652 30.8538491,29.7288201 31.2796712,29.7288201 C31.5987157,29.7288201 31.9309284,29.6923211 32.276882,29.6190368 C32.6226925,29.546325 32.9848201,29.4162166 33.3634081,29.2301431 C33.7427118,29.0440696 34.1442012,28.7984526 34.5693075,28.4924333 C34.9951296,28.1871296 35.4538723,27.7946576 35.9458221,27.3163056 L35.9458221,22.6902321 Z M36.0256905,29.8885571 C35.6798801,30.1808356 35.2642205,30.5296518 34.7792843,30.9352921 C34.2932031,31.3407892 33.7553075,31.7261044 33.1643095,32.0916673 C32.5725957,32.4572302 31.9279226,32.7668279 31.230147,33.019029 C30.5323714,33.2713733 29.7970948,33.3977602 29.0264642,33.3977602 C28.2416634,33.3977602 27.5141161,33.2546267 26.8431064,32.9689323 C26.1716673,32.6832379 25.5871103,32.284325 25.0885764,31.7726228 C24.5900426,31.2609207 24.1981431,30.6495977 23.9118762,29.9380812 C23.6261818,29.2271373 23.4836209,28.4393308 23.4836209,27.575234 C23.4836209,26.6716325 23.6655435,25.7877834 24.0311064,24.9236867 C24.3973849,24.0594468 25.0087079,23.2883868 25.8662205,22.6102205 C26.7233037,21.9321973 27.8570638,21.3841393 29.2662128,20.9654739 C30.6743598,20.5468085 32.4164371,20.3374043 34.4900116,20.3374043 L35.9458221,20.3374043 L35.9458221,18.7021044 C35.9458221,18.1176905 35.8462012,17.5928201 35.6463868,17.1270638 C35.4472882,16.6618801 35.1681779,16.262824 34.8090561,15.9307544 C34.4500774,15.5991141 34.0212495,15.3456248 33.5232882,15.1732921 C33.0247544,15.0003868 32.4695397,14.9132186 31.8582166,14.9132186 C31.3798646,14.9132186 30.8675899,14.9698994 30.3225377,15.0832611 C29.7773424,15.1959072 29.2388743,15.3522089 28.7074197,15.5520232 C28.1761083,15.7511219 27.6578221,15.9872921 27.1521315,16.2592456 C26.6468704,16.5319149 26.1948549,16.8276286 25.795942,17.1466731 L25.4373926,16.9475745 L24.5201934,13.5976789 C26.1280116,12.7603482 27.6237563,12.194971 29.0062824,11.9026925 C30.3892379,11.6109865 31.6851683,11.4642747 32.8953617,11.4642747 C34.1442012,11.4642747 35.2582089,11.5908046 36.2345222,11.8430058 C37.2119807,12.0953501 38.0397215,12.4841006 38.7173153,13.0095435 C39.3953385,13.5344139 39.9100464,14.199412 40.262441,15.0032495 C40.6144062,15.8072302 40.7908897,16.761501 40.7908897,17.8647737 L40.7908897,27.6354932 C40.7908897,27.8345919 40.8076364,28.0541586 40.8409865,28.2931915 C40.873764,28.5323675 40.9406074,28.7583752 41.0402282,28.9713578 C41.1398491,29.1836248 41.2858453,29.3631141 41.4785029,29.5098259 C41.6717331,29.6559652 41.9276557,29.7288201 42.2467002,29.7288201 C42.4327737,29.7288201 42.6587814,29.7024836 42.9247234,29.6488085 C43.190236,29.595706 43.4561779,29.5098259 43.7221199,29.3900232 L43.7221199,31.7827853 C43.004735,32.274735 42.2896402,32.6666344 41.5786963,32.9593424 C40.8671799,33.2516209 40.1729826,33.3977602 39.4949594,33.3977602 C38.9635048,33.3977602 38.5043327,33.2981393 38.1197331,33.0988975 C37.7332727,32.8992263 37.407501,32.6367195 37.1421315,32.3110909 C36.8761896,31.9854623 36.6537602,31.6133153 36.4742708,31.1946499 C36.2946383,30.7759845 36.1450638,30.3407157 36.0256905,29.8885571 L36.0256905,29.8885571 Z" id="Shape" fill="#373737" fill-rule="nonzero"></path>
                    <path d="M47.3349516,11.8629014 L51.2430677,11.8629014 L51.9210909,18.1636364 C52.1071644,17.8183985 52.2998221,17.4629981 52.4990638,17.0967195 C52.6988781,16.7317292 52.8979768,16.3793346 53.0972186,16.0399652 C53.2970329,15.7011683 53.4831064,15.3922863 53.6560116,15.113176 C53.8283443,14.8340658 53.9750561,14.6020464 54.0944294,14.4154004 C54.3741122,14.0038917 54.6895783,13.6144255 55.0419729,13.2488627 C55.3939381,12.8832998 55.7762476,12.5706963 56.1883288,12.3113385 C56.5998375,12.0518375 57.0452689,11.8461547 57.5241934,11.6934313 C58.003118,11.5401354 58.5214043,11.4644178 59.0790522,11.4644178 C59.4647969,11.4644178 59.8501122,11.5115087 60.236,11.6034004 C60.6213153,11.6964371 60.9469439,11.8431489 61.2134584,12.0423907 L60.6945996,16.4889749 C60.4554236,16.4228472 60.1757408,16.3793346 59.8572689,16.3595822 C59.5382244,16.3394004 59.2519574,16.3292379 59.0003288,16.3292379 C58.1492573,16.3292379 57.3912224,16.4520464 56.7267969,16.6983791 C56.0617988,16.9441393 55.4606383,17.282793 54.9221702,17.7151992 C54.383559,18.1470329 53.8916093,18.6557292 53.4467505,19.2407157 C53.0006035,19.8264178 52.5717756,20.4567776 52.1602669,21.1349439 L52.1602669,32.9988472 L47.3349516,32.9988472 L47.3349516,11.8629014 L47.3349516,11.8629014 Z" id="Shape" fill="#373737" fill-rule="nonzero"></path>
                    <path d="M64.6372108,11.8629014 L68.5453269,11.8629014 L69.2227776,15.4721547 C69.6885338,15.0463327 70.2103985,14.5978956 70.7883714,14.1261277 C71.3667737,13.6537872 71.9846809,13.2219536 72.6430948,12.8301973 C73.3009362,12.4377253 73.9855435,12.1120967 74.6964874,11.8527389 C75.4080039,11.5938104 76.122383,11.4644178 76.8404836,11.4644178 C77.478,11.4644178 78.0959072,11.5670445 78.6946344,11.7734429 C79.2927892,11.9791257 79.843853,12.2612418 80.3496867,12.620793 C80.8548046,12.9793424 81.2996634,13.4080271 81.6855513,13.9067041 C82.0708665,14.4052379 82.3695861,14.9532959 82.5831412,15.5521663 C83.1014275,15.113176 83.6464797,14.6509981 84.2178685,14.1660619 C84.7891141,13.6806963 85.4004371,13.2387002 86.0522669,12.8397872 C86.7035242,12.4413037 87.3911373,12.1120967 88.1158221,11.8527389 C88.8403636,11.5938104 89.6145725,11.4644178 90.4393075,11.4644178 C91.4227776,11.4644178 92.3066267,11.6565029 93.0908549,12.0423907 C93.8752263,12.4282785 94.5436596,12.9560116 95.0947234,13.6275938 C95.6465029,14.2984603 96.072325,15.0898453 96.3710445,16.0000309 C96.6704797,16.910646 96.8200542,17.8982669 96.8200542,18.9610329 L96.8200542,32.9988472 L91.9744139,32.9988472 L91.9744139,19.4996441 C91.9744139,18.1571954 91.6357602,17.0967195 90.9575938,16.319648 C90.2795706,15.5414313 89.3693849,15.1531103 88.2261779,15.1531103 C87.7472534,15.1531103 87.2916596,15.2229594 86.8598259,15.3625145 C86.4279923,15.5020696 86.005176,15.6945841 85.5936673,15.9403443 C85.1815861,16.186677 84.7695048,16.4825338 84.3574236,16.8277718 C83.9453424,17.1742979 83.5200928,17.5458723 83.081675,17.9442128 C83.1080116,18.1040928 83.1210368,18.2632573 83.1210368,18.4231373 L83.1210368,32.9988472 L78.2957215,32.9988472 L78.2957215,19.4996441 C78.2957215,18.8352186 78.2026847,18.2334855 78.0171838,17.6948743 C77.8299652,17.1569787 77.5710368,16.6983791 77.238824,16.319648 C76.9067544,15.9403443 76.5076983,15.6516441 76.0425145,15.4519729 C75.5773308,15.2527311 75.0656286,15.1531103 74.5074081,15.1531103 C74.0416518,15.1531103 73.5960774,15.2229594 73.1715435,15.3625145 C72.7457215,15.5020696 72.3300619,15.6945841 71.9249942,15.9403443 C71.5194971,16.186677 71.114,16.4759497 70.7090754,16.8081625 C70.3028627,17.1402321 69.8877756,17.5059381 69.4625261,17.9042785 L69.4625261,32.9988472 L64.6372108,32.9988472 L64.6372108,11.8629014 L64.6372108,11.8629014 Z" id="Shape" fill="#373737" fill-rule="nonzero"></path>
                    <path d="M112.267447,29.9482437 C113.117803,29.9482437 113.894874,29.7721896 114.599807,29.419795 C115.304739,29.0672573 115.908905,28.5758801 116.414739,27.9443752 C116.919857,27.3127273 117.312186,26.5582708 117.591296,25.6810058 C117.870406,24.8037408 118.009961,23.8340116 118.009961,22.7701006 C118.009961,21.7329555 117.872839,20.7434739 117.600886,19.798793 C117.32836,18.8546847 116.932882,18.0209323 116.414739,17.2963907 C115.896453,16.571706 115.264805,15.9938762 114.519938,15.56147 C113.775644,15.1296364 112.931729,14.9137911 111.987621,14.9137911 C111.123524,14.9137911 110.339868,15.0932805 109.634936,15.4516867 C108.930004,15.8108085 108.328843,16.3093424 107.830882,16.9474313 C107.332205,17.5856634 106.943455,18.3465609 106.663772,19.2304101 C106.385234,20.1142592 106.245106,21.0822708 106.245106,22.1318685 C106.245106,23.1821818 106.381656,24.1792495 106.654182,25.1227853 C106.926135,26.0674662 107.322186,26.8976402 107.840329,27.6151683 C108.358615,28.3331257 108.990263,28.9015087 109.73513,29.3201741 C110.479424,29.7388395 111.323338,29.9482437 112.267447,29.9482437 M111.430116,33.3977602 C109.767907,33.3977602 108.30265,33.1186499 107.033485,32.5604294 C105.763749,32.0022089 104.696832,31.2477524 103.832592,30.29706 C102.967923,29.3470832 102.314232,28.2466731 101.868085,26.9972611 C101.422654,25.7484217 101.200224,24.4250097 101.200224,23.0288859 C101.200224,21.4216402 101.486491,19.9151605 102.058453,18.5130251 C102.629126,17.1103172 103.430673,15.8870986 104.460662,14.8440851 C105.49065,13.8003559 106.716731,12.9761934 108.139764,12.3714545 C109.562224,11.7667157 111.123524,11.4642747 112.825667,11.4642747 C114.487161,11.4642747 115.955996,11.7433849 117.232317,12.3016054 C118.508638,12.8598259 119.578561,13.6178607 120.442658,14.5744217 C121.306325,15.5316983 121.961161,16.6385493 122.406592,17.8945455 C122.852166,19.1511141 123.074596,20.4769594 123.074596,21.8725106 C123.074596,23.4952147 122.785323,25.0065609 122.20735,26.4085532 C121.628948,27.8112611 120.821389,29.0309014 119.784244,30.0680464 C118.747814,31.104619 117.518012,31.9191915 116.095551,32.5103327 C114.672662,33.1019033 113.117803,33.3977602 111.430116,33.3977602" id="Shape" fill="#373737" fill-rule="nonzero"></path>
                    <path d="M127.355288,11.8629014 L131.26412,11.8629014 L131.941571,15.4721547 C132.407327,15.0463327 132.932197,14.5978956 133.517184,14.1261277 C134.102313,13.6537872 134.73983,13.2219536 135.431021,12.8301973 C136.122213,12.4377253 136.849903,12.1120967 137.614379,11.8527389 C138.378998,11.5938104 139.172816,11.4644178 139.996979,11.4644178 C140.96728,11.4644178 141.848839,11.646913 142.639652,12.0124758 C143.429749,12.3781818 144.104909,12.8898839 144.66313,13.5475822 C145.22135,14.2059961 145.653756,14.9932302 145.95906,15.9105725 C146.265079,16.8277718 146.418375,17.8321393 146.418375,18.9210986 L146.418375,32.9988472 L141.572592,32.9988472 L141.572592,19.4996441 C141.572592,18.7821161 141.473114,18.1511838 141.273872,17.6054159 C141.074058,17.0603636 140.797954,16.6089207 140.446132,16.2492263 C140.093594,15.8908201 139.674928,15.6188665 139.190135,15.4322205 C138.704054,15.246147 138.182762,15.1531103 137.624542,15.1531103 C136.640499,15.1531103 135.710704,15.4054545 134.832867,15.9105725 C133.955602,16.4162631 133.07118,17.0806886 132.181319,17.9042785 L132.181319,32.9988472 L127.355288,32.9988472 L127.355288,11.8629014 L127.355288,11.8629014 Z" id="Shape" fill="#373737" fill-rule="nonzero"></path>
                    <rect id="Rectangle-path" fill="#373737" x="152.364139" y="11.2664642" width="4.84564023" height="21.732383"></rect>
                    <path d="M176.77412,20.7758221 C176.77412,19.8060928 176.651168,18.9550213 176.405551,18.2237524 C176.159219,17.4931992 175.823427,16.8807311 175.398178,16.389354 C174.972356,15.8978337 174.4774,15.5286925 173.912596,15.2823598 C173.347791,15.0367427 172.739474,14.9132186 172.088789,14.9132186 C171.357091,14.9132186 170.678925,15.0605029 170.054576,15.3522089 C169.429513,15.6444874 168.88446,16.0535629 168.419277,16.5784333 C167.954093,17.1037331 167.589103,17.7252186 167.322445,18.4427466 C167.056503,19.1607041 166.923532,19.9384913 166.923532,20.7758221 L176.77412,20.7758221 L176.77412,20.7758221 Z M180.503319,31.0646847 C179.917617,31.476766 179.286685,31.8293037 178.608518,32.1214391 C177.930495,32.4142901 177.233292,32.656472 176.514619,32.8497021 C175.797234,33.0423598 175.082139,33.1819149 174.371768,33.2683675 C173.660395,33.3548201 172.985234,33.3977602 172.347718,33.3977602 C170.872155,33.3977602 169.499362,33.1717524 168.230197,32.7195938 C166.96046,32.2681509 165.857188,31.6031528 164.920236,30.7258878 C163.983284,29.8486228 163.248008,28.7685377 162.716553,27.4857756 C162.185242,26.2028704 161.919157,24.731029 161.919157,23.0688201 C161.919157,21.3018375 162.218592,19.6993153 162.816747,18.2638298 C163.414901,16.8276286 164.214731,15.6079884 165.219099,14.6043366 C166.22275,13.6012573 167.38571,12.8270484 168.709122,12.2814236 C170.031246,11.7362282 171.410766,11.4642747 172.846251,11.4642747 C174.042561,11.4642747 175.155424,11.6599381 176.185985,12.0524101 C177.215973,12.4441663 178.106406,13.0268627 178.857857,13.7967776 C179.608735,14.5679807 180.196727,15.5316983 180.622549,16.6880735 C181.047799,17.8444487 181.260781,19.1881857 181.260781,20.7161354 C181.260781,21.0882824 181.243462,21.483617 181.210685,21.9022824 C181.177764,22.3209478 181.121226,22.7301663 181.041215,23.1285068 L166.923532,23.1285068 C166.923532,24.2055861 167.113756,25.1562785 167.492487,25.980441 C167.871219,26.8046035 168.406108,27.4923598 169.0973,28.0439961 C169.787919,28.5956325 170.619954,29.0142979 171.590255,29.2999923 C172.559985,29.5856867 173.63048,29.7288201 174.800023,29.7288201 C175.132236,29.7288201 175.52113,29.7156518 175.966561,29.6887427 C176.412135,29.6625493 176.886766,29.6094468 177.3926,29.5295783 C177.897718,29.4497099 178.416004,29.3399265 178.947888,29.2003714 C179.47877,29.0608162 179.997629,28.8777485 180.503319,28.6523133 L180.503319,31.0646847 Z" id="Shape" fill="#373737" fill-rule="nonzero"></path>
                    <path d="M126.312847,65.7091373 L126.263896,65.6494507 C126.081973,65.4616596 125.828627,65.3411412 125.504143,65.2898994 C125.139725,65.2373694 124.798066,65.3452921 124.539137,65.5904797 C122.850735,67.0419961 121.213718,68.1894971 119.672027,69.0000619 C118.124468,69.8129168 116.683544,70.4289632 115.392337,70.8297369 C114.116015,71.2263598 113.028201,71.4284642 112.160526,71.43147 C111.252201,71.430325 110.762542,71.3211141 110.495455,71.2107582 C110.339153,70.9126112 110.271164,70.2166963 111.044658,68.6356441 C111.777072,67.141617 112.902387,65.5164797 114.384391,63.8101857 C115.864677,62.1547041 117.136847,60.9946074 118.165547,60.3642476 C119.091764,59.7958646 119.489532,59.6777795 119.63381,59.6545919 C119.638677,59.6598878 119.641683,59.6653269 119.645834,59.6700503 C119.765064,60.1453965 119.453176,60.6988936 118.727346,61.3066383 C118.191741,61.7311721 118.113733,62.3407776 118.508495,62.9210406 C118.689845,63.2095977 118.973679,63.3892302 119.327362,63.441617 C119.692925,63.4988704 120.023849,63.3807853 120.246994,63.1165609 C120.873776,62.6191721 121.358569,62.0251683 121.690781,61.3501509 C122.041458,60.6320503 122.166128,59.9205338 122.058778,59.2269091 C121.941265,58.5513191 121.659149,58.0705338 121.221447,57.7980077 C120.867764,57.5797292 120.42405,57.4026731 119.902186,57.2714197 L119.837203,57.2595397 C117.854232,57.0328162 115.263516,58.5172534 111.862379,61.798588 C110.56101,63.0903675 109.527443,64.3260387 108.790878,65.4729671 C108.524364,65.7044139 108.203458,65.9626267 107.83675,66.2417369 C107.325048,66.6293424 106.755377,66.9841702 106.141191,67.296058 C105.544754,67.5996441 104.928135,67.8203559 104.307795,67.9527544 C103.77405,68.0654004 103.316023,67.9951219 102.91711,67.74106 C102.752507,67.6331373 102.575308,67.4369014 102.660043,66.880971 C102.752507,66.2697911 102.942159,65.4711064 103.227137,64.4960812 C103.913033,61.9238298 103.914894,60.1018839 103.232576,58.9246112 C102.53294,57.7192843 101.409342,57.1401663 99.9792959,57.2546731 C98.6475822,57.3614507 97.1183443,58.0347505 95.434236,59.256824 C94.6636054,59.8173346 93.9151605,60.4806151 93.1953424,61.2433733 L94.6498646,57.8070251 C94.8526847,57.428294 94.8187621,57.0137795 94.5551103,56.6404874 L94.5074468,56.5825184 C94.2008549,56.2623288 93.9068588,56.1024487 93.6085687,56.0947195 L93.0539265,56.0798337 C92.5190368,56.0660928 92.1056673,56.3553656 91.9238878,56.859911 L88.7331567,64.9558259 C86.5515164,67.6444449 84.7350097,69.3769323 83.3340193,70.1057679 C81.7631296,70.9216286 80.9920696,70.9096054 80.6144836,70.7336944 L80.5082785,70.6221934 L80.2590832,70.3180348 C80.1952456,70.1724681 80.1308356,69.9082437 80.1440039,69.436619 C80.1583172,68.8605068 80.240619,68.1985145 80.3860426,67.4685338 C80.5310368,66.7391257 80.7325687,65.9786576 80.9854855,65.2081702 C81.2401199,64.4341044 81.5054894,63.738619 81.7744371,63.1404642 L81.8007737,63.0677524 C81.9808356,62.4140619 81.7386538,61.861853 81.1566731,61.5940503 L80.4093733,61.2379342 C80.3091799,61.1718066 80.1779265,61.1288665 80.0127505,61.1247157 L79.5654584,61.1126925 L79.4306267,61.2415126 C79.3466074,61.2737176 79.2588665,61.325675 79.1724139,61.4091219 L79.0102437,61.5624178 L78.9422553,61.6405687 C77.0611954,64.3326228 75.4080039,66.2362979 74.026766,67.2979188 C72.5351721,68.4459923 71.6400155,68.8347427 71.1230174,68.9420928 C71.0352766,68.8633694 70.9458182,68.7482901 70.8593656,68.6021509 C70.8522089,68.5914159 70.7072147,68.3326306 71.0096557,67.1809787 C71.1814159,66.2924062 71.5345261,65.3667621 72.0586809,64.4310986 C72.5960039,63.4721044 73.1912959,62.5780928 73.8275242,61.7735397 C74.4657563,60.9684139 75.0806576,60.283234 75.6554816,59.7374662 C76.3031605,59.1231373 76.6144758,58.9920271 76.7171025,58.9639729 C77.1339072,58.9830097 77.4374932,59.098089 77.6420309,59.3140774 L77.6951335,59.3628859 C78.029207,59.6259652 78.3589865,59.7393269 78.6810368,59.6975319 C78.8844294,59.6713385 79.1825764,59.5675667 79.4462282,59.2186074 C79.8707621,58.6550909 79.8385571,58.0413346 79.3155474,57.4944217 C78.7322785,57.002472 78.018472,56.6815667 77.1960271,56.5408665 L76.4905222,56.5175358 C76.2417563,56.5109516 76.0110251,56.5372882 75.8057718,56.5945416 C74.8480658,56.7746035 73.4310445,57.7162785 72.8059807,58.3091373 C71.7205996,59.3402708 70.9356557,60.0845648 69.668352,61.8814623 L69.577176,62.0127157 C66.743706,66.0955977 63.7902901,69.092383 61.2622669,70.4510058 C59.615087,71.336 58.8504681,71.1482089 58.1144758,70.9323636 C57.6869362,70.6627002 57.4065377,70.1862089 57.2598259,69.4771257 L57.2133075,69.2558414 C57.0946499,68.6951876 57.0946499,68.6951876 57.1370174,67.8239342 L57.1460348,67.6354275 C57.1978491,66.541029 57.3511451,65.3059304 57.6415629,63.6325571 C58.1628549,60.6427853 59.1348743,57.47653 60.2883868,54.3997331 C62.5295706,54.0074043 64.8530561,53.6638839 67.227354,53.3817679 C70.1054816,53.0399652 72.9931992,52.8772224 75.7999033,52.8986925 C76.551354,52.9183017 77.0308511,52.4632805 77.0504603,51.7112573 C77.0707853,50.959234 76.615764,50.4797369 75.8541509,50.4599845 C73.1566576,50.4428085 70.401911,50.5852263 67.6663443,50.8835164 C65.5300774,51.1178259 63.4092689,51.4065261 61.3355513,51.7417447 C62.7442708,48.3267234 63.9382901,46.1469439 65.2323598,43.5675358 C66.2028046,41.9084758 66.978588,40.4752805 68.0556673,38.9456132 C68.2782398,38.6420271 68.3676983,38.3348627 68.3211799,38.0318491 C68.2746615,37.7289787 68.0968897,37.4623211 67.7933037,37.2404642 C67.1849865,36.7950329 66.5331567,36.8975164 66.0828588,37.5118453 C66.0374855,37.5768279 65.9934004,37.6442437 65.9487427,37.7097988 C65.9487427,37.7097988 64.7464217,39.3785919 64.118352,40.5551489 C63.4909981,41.7318491 62.5498956,43.3910522 62.5498956,43.3910522 C61.0946576,46.152383 59.402677,49.4830986 58.2123791,52.2056402 C56.4911992,52.6184371 55.0222205,53.0013191 53.8413694,53.345412 C52.5090832,53.7341625 51.427853,54.0676634 50.6280232,54.3371838 C49.8276209,54.6072766 49.0386692,54.8959768 48.3051103,55.1882553 C47.6162089,55.4261431 47.3395319,56.0118453 47.5757021,56.7823327 C47.7480348,57.2475164 48.1327776,57.5117408 48.6599381,57.5254816 C48.855029,57.5307776 49.0028859,57.4842592 49.1126692,57.4234275 C49.2235977,57.3930832 49.3797563,57.3352573 49.6290948,57.2290522 C49.8264758,57.1461779 50.2415629,56.9923095 51.098646,56.7316634 C51.8154584,56.5133849 52.7582785,56.2354197 53.9255319,55.8973385 C54.7907737,55.6468549 55.8535397,55.3564371 57.0910716,55.030236 C56.0009671,58.1140464 55.3907892,60.5425919 55.2960348,61.0900774 C53.8735745,67.3432921 53.2264681,71.5936402 57.0279497,73.6202669 L57.0935048,73.6494662 C57.6314004,73.8451296 58.2027892,73.9494739 58.7992263,73.9655048 C59.8893308,73.9941315 61.0618801,73.7240387 62.2653462,73.1609516 C63.7122824,72.484646 64.756441,71.9962747 66.0399188,70.7784952 L67.7235977,69.1812689 C67.8213578,69.5421083 68.0163056,69.8952186 68.3055783,70.2261431 C69.2807466,71.3425841 69.9176905,71.4213075 70.587412,71.4028433 C70.6565455,71.4011257 70.7245338,71.3998375 70.794383,71.4011257 L71.1098491,71.4094275 L71.1742592,71.4069942 C72.1117834,71.3133849 73.1811335,70.8738221 74.4412805,70.0621122 C75.3275629,69.490294 76.2816905,68.6737176 77.2902089,67.6241199 C77.2466963,68.2414545 77.2681663,68.8275861 77.3581973,69.3780774 C77.5293849,70.4378375 77.8753385,71.309234 78.4179574,72.0058646 L78.8712611,72.4840735 L78.9106228,72.484646 C78.9524178,72.5275861 79.0012263,72.5633694 79.0561896,72.5908511 C79.136058,72.6629903 79.2296673,72.7315513 79.3370174,72.7744913 C79.7777253,73.074499 80.3771683,73.2360967 81.1208897,73.2552766 C82.4418685,73.2897718 83.9590832,72.6951954 85.6324565,71.4881509 C85.9294584,71.2734507 86.233617,71.0372805 86.5426422,70.7813578 L86.1704952,71.8823404 C85.9968743,72.5115551 86.2157253,73.0471605 86.7560542,73.3274159 C86.8991876,73.4317602 87.0888395,73.4860077 87.3340271,73.4920193 L87.6500658,73.5003211 C88.1845261,73.5146344 88.5988975,73.2260774 88.77853,72.7274004 C88.7934159,72.691617 90.2622515,69.1079845 91.2379923,67.6634816 C92.2357756,66.1856286 93.2680542,64.860499 94.30706,63.7243056 C95.3357602,62.5984178 96.3574468,61.6780696 97.3450677,60.9887389 C98.2980503,60.3243133 99.1043211,59.9361354 99.7395474,59.8352263 C100.353161,59.7398994 100.557698,59.9832263 100.687807,60.2604758 C100.841675,60.5902553 100.939435,61.3209516 100.543385,62.9072998 C100.364468,63.5007311 100.201725,64.0905841 100.057447,64.6576789 C99.9017176,65.2654236 99.8146925,65.8874816 99.7985184,66.5052456 C99.7819149,67.1595087 99.9011451,67.7815667 100.154634,68.3552456 C100.424727,68.9671412 100.9287,69.4735474 101.631915,69.8468395 C102.572302,70.410499 103.61188,70.5738143 104.720592,70.335354 C105.65511,70.1331064 106.538959,69.8217911 107.348809,69.4067041 C107.242747,70.696766 107.54619,71.7493694 108.261857,72.5520619 C108.535671,72.8389014 108.764685,73.0244023 108.972801,73.1258839 C109.056248,73.1920116 109.139838,73.2325184 109.2167,73.2552766 C109.802402,73.6018027 110.575896,73.7901663 111.516998,73.8146422 C112.238677,73.8336789 113.145714,73.7334855 114.213346,73.5159226 C115.267095,73.3012224 116.451524,72.9368046 117.731996,72.4322592 C119.001161,71.9312921 120.372809,71.2632882 121.807721,70.4474275 C123.244352,69.6304217 124.695439,68.6111683 126.07725,67.4487814 C126.438089,67.2043095 126.557319,66.9126035 126.594391,66.7110716 C126.652789,66.3925996 126.557892,66.0556634 126.312847,65.7091373" id="Shape" fill="#373737" fill-rule="nonzero"></path>
                    <path d="M81.1496596,55.1362979 C81.3906963,55.3099188 81.6333075,55.4005222 81.8737718,55.4071064 C81.9374662,55.4082515 82.0018762,55.4041006 82.0651412,55.3933656 C82.3681547,55.3444139 82.6323791,55.1649246 82.8583868,54.8518917 C82.9465571,54.7253617 83.4177524,54.1707195 83.8704836,53.4717988 C83.9305996,53.3949362 83.9914313,53.3226538 84.0433888,53.2523752 C84.6570019,52.4137563 85.284499,51.2364836 85.284499,51.2364836 C85.4199033,51.0200658 85.8414313,50.2053501 86.0096132,49.9239497 C86.4068085,49.2857176 86.2578066,48.641617 85.6195745,48.2438491 C84.982058,47.8455087 84.2837099,47.9647389 83.9341779,48.6421896 C83.5429942,49.4015126 82.9150677,50.5780696 81.7991992,52.1508201 C81.5528665,52.4781663 81.2588704,52.8783675 80.8735551,53.4342979 C80.4345648,54.0443327 80.5407698,54.696735 81.1496596,55.1362979" id="Shape" fill="#373737" fill-rule="nonzero"></path>
                    <path d="M157.425338,2.68375242 C157.425338,4.16575629 156.223733,5.36750484 154.741586,5.36750484 C153.259582,5.36750484 152.057834,4.16575629 152.057834,2.68375242 C152.057834,1.20174855 153.259582,0 154.741586,0 C156.223733,0 157.425338,1.20174855 157.425338,2.68375242" id="Shape" fill="#FF1177" fill-rule="nonzero"></path>
                </g>
                <g id="logodraft-2" transform="translate(1.000000, 114.000000)">
                    <polygon id="Shape" fill="#515151" fill-rule="nonzero" points="46.7437143 77.5789394 46.7395714 77.6144394 70.0228571 77.6144394 70.0187143 77.5789394"></polygon>
                    <polygon id="Shape" fill="#515151" fill-rule="nonzero" points="19.5892857 46.2487987 36.6535714 46.2487987 36.6535714 43.7182834 0 43.7182834 0 46.2487987 17.0642857 46.2487987 17.0642857 77.5891045 19.5892857 77.5891045 19.5892857 46.2487987"></polygon>
                    <path d="M58.3471429,46.7276996 L69.0632857,75.321591 L47.699,75.321591 L58.3471429,46.7276996 L58.3471429,46.7276996 Z M72.5621429,77.5891045 L59.7805714,43.8554395 L56.9817143,43.8554395 L44.2001429,77.5891045 L72.5621429,77.5891045 Z" id="Shape" fill="#515151" fill-rule="nonzero"></path>
                    <rect id="Rectangle-path" fill="#515151" x="113.479714" y="43.7184266" width="2.525" height="33.870821"></rect>
                    <polygon id="Shape" fill="#515151" fill-rule="nonzero" points="92.1024286 47.2753217 112.692429 77.5889613 115.725143 77.5889613 92.7167143 43.7181403 89.5774286 43.7181403 89.5774286 77.5889613 92.1024286 77.5889613 92.1024286 47.2753217"></polygon>
                    <path d="M135.624143,67.5231659 C135.624143,54.9363044 145.726429,44.8809603 158.284857,44.8809603 C165.861571,44.8809603 172.755714,48.6434463 176.987143,54.9363044 L177.260429,54.9363044 L179.171143,53.4997449 C174.598571,46.5912593 166.749143,42.2818671 158.284857,42.2818671 C144.497286,42.2818671 133.099143,53.7050495 133.099143,67.5231659 C133.099143,71.0905123 133.864,74.4962207 135.228857,77.5892476 L137.961,77.5892476 C136.466429,74.5629375 135.624143,71.1496412 135.624143,67.5231659" id="Shape" fill="#515151" fill-rule="nonzero"></path>
                    <polygon id="Shape" fill="#515151" fill-rule="nonzero" points="58.5774286 64.7333713 56.8404286 63.1012426 62.7928571 56.5393697 64.5297143 58.1714983 58.5774286 64.7333713"></polygon>
                    <path d="M180.922857,75.2514381 C180.922857,76.5691672 179.856714,77.6376388 178.541857,77.6376388 C177.227,77.6376388 176.160857,76.5691672 176.160857,75.2514381 C176.160857,73.933709 177.227,72.8652374 178.541857,72.8652374 C179.856714,72.8652374 180.922857,73.933709 180.922857,75.2514381" id="Shape" fill="#FF1177" fill-rule="nonzero"></path>
                    <path d="M128.731714,3.72511885 C130.098429,3.72511885 130.961571,4.69809658 130.961571,5.99563885 C130.961571,7.25667297 129.954429,8.48248747 128.372286,8.48248747 C127.077571,8.48248747 126.214571,7.5812375 126.214571,6.3200602 C126.214571,4.84241112 127.365143,3.72511885 128.731714,3.72511885" id="Shape" fill="#FF1177" fill-rule="nonzero"></path>
                    <path d="M31.9398571,17.6010756 L32.2637143,15.9068115 C31.9398571,15.1862411 31.2565714,14.1768984 29.8898571,14.1768984 C27.4447143,14.1768984 24.6755714,17.8169747 24.6755714,23.6194784 C24.6755714,25.6381638 25.4667143,26.6111415 26.797,26.6111415 C29.3505714,26.6111415 31.2565714,21.2053597 31.9398571,17.6010756 L31.9398571,17.6010756 Z M35.5,23.4393715 C35.1041429,25.6023715 35.7518571,26.6111415 37.0464286,26.6111415 C38.2697143,26.6111415 39.8881429,25.4222646 40.8225714,23.4757365 C41.2904286,23.4757365 41.6137143,23.7639361 41.506,24.4129219 C41.1464286,26.3230851 38.5571429,29.7471192 35.069,29.7471192 C32.6952857,29.7471192 31.0404286,28.2688974 30.8612857,25.6745287 C29.3868571,28.3410547 27.409,29.7471192 25.3582857,29.7471192 C22.4095714,29.7471192 20.0725714,27.7647987 20.0725714,23.5478938 C20.0725714,15.5108056 24.7475714,11.7262715 28.9547143,11.7262715 C30.7535714,11.7262715 32.0118571,12.4469852 32.8392857,13.4921202 C33.4142857,12.1945779 34.3131429,11.7262715 36.0755714,11.7262715 C37.2982857,11.7262715 37.8738571,12.0866284 37.8738571,12.0866284 C37.8738571,12.0866284 37.4065714,12.7356143 37.0464286,14.6815697 L35.5,23.4393715 L35.5,23.4393715 Z" id="Shape" fill="#FF1177" fill-rule="nonzero"></path>
                    <path d="M46.647,16.8800756 C48.9488571,12.9877352 51.3582857,11.7259852 52.9767143,11.7259852 C54.7387143,11.7259852 55.8535714,12.6995356 55.8535714,14.5375415 C55.8535714,16.5556543 54.631,17.9975111 52.869,17.9975111 C51.9338571,17.9975111 51.25,17.7808961 51.25,17.7808961 C51.25,17.7808961 51.7184286,16.9523761 51.7184286,15.9793983 C51.7184286,15.474727 51.5017143,15.1865274 50.9631429,15.1865274 C50.3874286,15.1865274 49.5964286,15.6548338 48.4095714,17.3125897 C47.0428571,19.2227529 45.856,21.4573374 44.9934286,26.5392706 C44.6332857,28.6659055 44.9934286,29.4224115 44.9934286,29.4224115 C44.9934286,29.4224115 44.453,29.7468328 43.1225714,29.7468328 C40.3541429,29.7468328 40.0302857,28.7016978 40.4612857,26.1789137 L42.3678571,15.1501624 C42.7637143,12.8797856 42.4035714,12.0505497 42.4035714,12.0505497 C42.4035714,12.0505497 42.9428571,11.7259852 44.2738571,11.7259852 C47.0428571,11.7259852 47.3667143,12.8797856 46.9345714,15.294477 L46.647,16.8800756 L46.647,16.8800756 Z" id="Shape" fill="#FF1177" fill-rule="nonzero"></path>
                    <path d="M85.1491429,23.4755933 C85.6164286,23.4755933 85.9402857,23.7636497 85.8324286,24.4127788 C85.5087143,26.2506415 82.8474286,29.746976 79.5032857,29.746976 C76.8051429,29.746976 75.1515714,27.9449056 75.1515714,25.2418715 C75.1515714,24.3048292 75.4752857,22.394666 75.6908571,21.1329161 L76.3741429,17.1684183 C76.6617143,15.4741543 76.3027143,14.8978983 75.5117143,14.8978983 C73.6771429,14.8978983 70.9081429,20.1600815 69.7931429,26.3227988 C69.3974286,28.5938914 69.7574286,29.4224115 69.7574286,29.4224115 C69.7574286,29.4224115 69.2175714,29.746976 67.8867143,29.746976 C65.1181429,29.746976 64.7944286,28.701841 65.2252857,26.1790569 L66.8081429,17.1684183 C67.0955714,15.618612 66.8438571,14.8978983 65.9812857,14.8978983 C64.2188571,14.8978983 61.4134286,19.6554101 60.2271429,26.3227988 C59.8312857,28.5938914 60.1908571,29.4224115 60.1908571,29.4224115 C60.1908571,29.4224115 59.6515714,29.746976 58.3211429,29.746976 C55.5515714,29.746976 55.2277143,28.701841 55.6598571,26.1790569 L57.5652857,15.1503056 C57.961,12.8799288 57.6015714,12.0506929 57.6015714,12.0506929 C57.6015714,12.0506929 58.1414286,11.7261284 59.4711429,11.7261284 C62.2408571,11.7261284 62.5645714,12.7718361 62.1331429,15.2946201 L61.989,16.1596483 C63.176,14.1773279 65.2974286,11.7261284 67.7788571,11.7261284 C70.0444286,11.7261284 71.5194286,13.1316202 71.5194286,15.4741543 C71.5194286,15.7265616 74.8277143,11.7261284 77.3812857,11.7261284 C79.6467143,11.7261284 81.0854286,13.2037775 81.0854286,15.438362 C81.0854286,16.2312329 80.9414286,17.2763679 80.7617143,18.3578679 L79.8985714,23.4392284 C79.539,25.566436 80.0782857,26.611571 81.373,26.611571 C82.811,26.611571 84.214,25.4221215 85.1491429,23.4755933" id="Shape" fill="#FF1177" fill-rule="nonzero"></path>
                    <path d="M96.8935714,16.2675979 C96.7137143,14.4653843 95.8864286,13.4924065 94.556,13.4924065 C92.7578571,13.4924065 90.8875714,15.3304124 89.881,20.700402 C89.7007143,21.6375874 89.5571429,23.5119583 89.5571429,24.4126356 C89.5571429,26.6831556 90.4202857,27.9447624 91.9304286,27.9447624 C93.8727143,27.9447624 95.4911429,25.8902847 96.4262857,21.5654301 C96.9917143,19.5896955 96.9917143,17.4802408 96.8935714,16.2675979 M101.532857,18.610132 C101.532857,19.4030029 101.201286,21.1717149 100.993571,22.5384079 C99.7702857,26.8274701 96.4614286,29.746976 91.5708571,29.746976 C87.759,29.746976 84.9535714,27.3321415 84.9535714,22.8628292 C84.9535714,16.3397551 88.7661429,11.7261284 94.9155714,11.7261284 C99.1232857,11.7261284 101.532857,14.5011766 101.532857,18.610132" id="Shape" fill="#FF1177" fill-rule="nonzero"></path>
                    <path d="M115.030286,17.1685615 C115.318286,15.4385052 114.958857,14.8980415 114.167714,14.8980415 C111.901714,14.8980415 108.485571,20.2681742 107.370714,26.3229419 C106.974857,28.5934619 107.334429,29.4225547 107.334429,29.4225547 C107.334429,29.4225547 106.795143,29.7471192 105.464714,29.7471192 C102.695143,29.7471192 102.371286,28.7014115 102.803429,26.1786274 L104.709429,15.1504488 C105.104714,12.8799288 104.745143,12.0502634 104.745143,12.0502634 C104.745143,12.0502634 105.285,11.7262715 106.614714,11.7262715 C109.384429,11.7262715 109.708286,12.7714065 109.276714,15.2941906 L108.989143,16.9519466 C110.391571,14.6094125 113.124857,11.7262715 116.037429,11.7262715 C118.302857,11.7262715 119.741571,13.2039206 119.741571,15.4385052 C119.741571,16.2313761 119.598143,17.2765111 119.417714,18.358011 L118.555286,23.4393715 C118.231429,25.2056497 118.519,26.6117142 120.029,26.6117142 C121.539714,26.6117142 122.870714,25.3499642 123.805286,23.4757365 C124.272571,23.4757365 124.596286,23.7637929 124.489143,24.4129219 C124.201143,26.2507847 121.504,29.7471192 118.159429,29.7471192 C115.462429,29.7471192 113.807571,27.9449056 113.807571,25.2420146 C113.807571,24.3048292 114.131429,22.3226519 114.347571,21.1330592 L115.030286,17.1685615 L115.030286,17.1685615 Z" id="Shape" fill="#FF1177" fill-rule="nonzero"></path>
                    <path d="M124.918571,15.1501624 C125.313714,12.8434206 124.954857,12.0505497 124.954857,12.0505497 C124.954857,12.0505497 125.494143,11.7261284 126.824429,11.7261284 C129.593571,11.7261284 129.917286,12.7718361 129.485714,15.2946201 L128.082857,23.4396579 C127.723857,25.6022283 128.334571,26.611571 129.629286,26.611571 C130.852429,26.611571 132.470857,25.4219783 133.406,23.4754502 C133.873286,23.4754502 134.197143,23.7636497 134.088714,24.4126356 C133.729857,26.3227988 131.14,29.746976 127.651857,29.746976 C125.170286,29.746976 123.444143,28.1248692 123.444143,25.2418715 C123.444143,24.5205852 123.516143,23.259551 123.767286,21.8176942 L124.918571,15.1501624 Z" id="Shape" fill="#FF1177" fill-rule="nonzero"></path>
                    <path d="M137.887,20.4122024 C142.274571,19.3670674 144.144714,17.1323397 144.144714,14.8619629 C144.144714,13.8884125 143.569143,13.5280557 142.850143,13.5280557 C140.512571,13.5280557 138.246571,16.4117692 137.887,20.4122024 M147.993,15.5103761 C147.993,19.475017 142.598286,21.1691379 137.887,22.1063233 C138.246571,24.8450065 140.116857,26.8994842 143.281714,26.8994842 C145.726857,26.8994842 146.662,25.3860428 146.662,25.3860428 C147.093571,25.3860428 147.309714,25.6020851 147.237571,26.0345992 C146.985857,27.5844056 144.575714,29.7468328 140.979857,29.7468328 C136.053143,29.7468328 133.212,26.214706 133.212,21.9262165 C133.212,15.4745838 138.210857,11.7259852 142.706714,11.7259852 C146.554286,11.7259852 147.993,13.5645638 147.993,15.5103761" id="Shape" fill="#FF1177" fill-rule="nonzero"></path>
                    <path d="M12.5155714,17.3360695 C12.8031429,15.6060131 12.4441429,15.0649768 11.6525714,15.0649768 C9.38642857,15.0649768 5.93471429,20.4356822 4.85614286,26.4904499 C4.46028571,28.7615426 4.81971429,29.5900626 4.81971429,29.5900626 C4.81971429,29.5900626 4.28042857,29.9146271 2.94957143,29.9146271 C0.180428571,29.9146271 -0.143285714,28.8689194 0.288285714,26.346708 L4.28042857,3.42417724 C4.67571429,1.15365724 4.31614286,0.324564527 4.31614286,0.324564527 C4.31614286,0.324564527 4.85614286,0 6.18642857,0 C8.95614286,0 9.27928571,1.04570768 8.84771429,3.56791909 L6.474,17.1200272 C7.15728571,16.0027349 7.87628571,15.1013418 8.63228571,14.344979 C10.3215714,12.6508581 12.084,11.8937795 13.5227143,11.8937795 C15.7888571,11.8937795 17.2268571,13.3714286 17.2268571,15.6060131 C17.2268571,16.2551422 17.1548571,17.1200272 16.9031429,18.4897267 L16.0405714,23.4272021 C15.6084286,25.9857785 16.1834286,26.7786494 17.1185714,26.7786494 C18.162,26.7786494 18.4852857,25.7698794 18.4852857,25.7698794 C18.9888571,25.7698794 19.2405714,26.1666012 19.1691429,26.8150144 C19.0251429,28.2568712 17.3352857,29.9146271 14.9971429,29.9146271 C13.1268571,29.9146271 11.365,28.436978 11.365,25.6619298 C11.365,24.6162222 11.437,23.4272021 11.6882857,21.9854885 L12.5155714,17.3360695 L12.5155714,17.3360695 Z" id="Shape" fill="#FF1177" fill-rule="nonzero"></path>
                </g>
                <g id="logo" transform="translate(429.000000, 20.000000)">
                    <path d="M26.0378182,111.017776 L26.0378182,114.10154 L46.9615868,114.10154 L46.9615868,152.290024 L50.0592397,152.290024 L50.0592397,114.10154 L70.9875041,114.10154 L70.9875041,111.017776 L26.0378182,111.017776 Z M167.390149,152.287783 L170.485554,152.287783 L170.485554,111.017776 L167.390149,111.017776 L167.390149,152.287783 Z M130.77805,111.017776 L130.77805,152.287783 L133.873455,152.287783 L133.873455,115.35432 L159.124496,152.287783 L162.842579,152.287783 L134.62876,111.017776 L130.77805,111.017776 Z M220.144661,109.26747 C203.23795,109.26747 189.25805,123.184752 189.25805,140.022198 C189.25805,144.369947 190.197686,148.52048 191.870149,152.287783 L195.21957,152.287783 C193.327405,148.474698 192.347149,144.276386 192.355702,140.022198 C192.355702,124.686294 204.741818,112.434156 220.144661,112.434156 C229.435372,112.434156 237.889851,117.019463 243.080331,124.686294 L243.415273,124.686294 L245.75762,122.93823 C240.043374,114.405412 230.435709,109.27738 220.144661,109.26747 L220.144661,109.26747 Z" id="Shape" fill="#373737" fill-rule="nonzero"></path>
                    <g id="Group" transform="translate(75.766612, 110.793665)">
                        <g id="Clipped">
                            <mask id="mask-2" fill="white">
                                <use xlink:href="#path-1"></use>
                            </mask>
                            <g id="a"></g>
                            <path d="M30.5853884,38.7308315 L4.38347107,38.7308315 L17.4439669,3.89056379 L21.7285289,15.2529822 L17.7856529,19.4797122 L19.9144463,21.4698163 L22.8749752,18.294166 L30.5853884,38.7308315 Z M29.4029752,11.2929441 L27.2741818,9.30284003 L23.9539835,12.8617198 L19.2018512,0.389952822 L15.7692562,0.389952822 L0.096661157,41.4918767 L34.8744463,41.4918767 L25.1139174,15.8961803 L29.4029752,11.2951852 L29.4029752,11.2929441 Z" id="Shape" fill="#373737" fill-rule="nonzero" mask="url(#mask-2)"></path>
                        </g>
                    </g>
                    <path d="M234.821421,43.9346846 L234.780959,43.9391669 C234.711273,43.9391669 234.637091,43.9257202 234.562909,43.9167558 C234.650579,43.9279613 234.736,43.9391669 234.821421,43.9346846 M235.437355,38.7868592 C235.509289,38.7868592 235.578975,38.804788 235.650909,38.8159936 C235.570193,38.8001137 235.488155,38.7918597 235.405884,38.7913414 L235.437355,38.7868592 M233.630017,44.833369 C234.000926,44.9902466 234.394314,45.0709265 234.780959,45.0709265 C236.035306,45.0709265 237.100826,44.2596453 237.950545,42.6639763 C237.972811,42.6211769 237.992332,42.5770132 238.008992,42.5317509 C238.373157,41.5680744 238.427107,40.6514612 238.170843,39.8132867 C237.824661,38.7061793 237.154777,38.1974477 236.624264,37.9621314 C236.261535,37.7601285 235.852839,37.6544061 235.437355,37.6550995 C234.965289,37.6550995 234.481983,37.789566 233.994182,38.0495346 C233.155702,38.4977562 232.542017,39.2238753 232.166612,40.2009984 C231.79798,41.0393142 231.736711,41.980154 231.993521,42.8589527 C232.344198,44.0960444 233.077025,44.6159815 233.630017,44.833369" id="Shape" fill="#F11F96" fill-rule="nonzero"></path>
                    <path d="M169.991008,67.1615298 C169.233455,66.4062763 168.475901,64.8980105 169.233455,62.6344913 C169.714512,61.2024231 170.748562,60.370972 171.508364,61.1239843 C172.265917,61.8792378 172.265917,63.3875036 171.508364,64.8980105 C171.186909,65.5367263 170.748562,66.4062763 169.991008,67.1615298 L169.991008,67.1615298 Z M164.526281,75.3169224 C162.952727,76.6391762 161.435372,77.4863151 160.028165,77.8314458 C158.881719,78.1115843 158.040992,77.9883234 157.359868,77.4145997 C157.141818,77.2308288 156.467438,76.3926543 156.917025,73.2685495 C157.09686,72.05611 157.490248,70.7517851 158.079207,69.3936735 C158.729114,67.9345492 159.555759,66.5602382 160.540694,65.30141 C161.680278,63.8437696 162.962688,62.5029419 164.368926,61.2987908 C164.854479,60.8797036 165.362512,60.4718219 165.893025,60.0773868 L165.848066,60.1535845 C165.070846,61.5164641 164.5784,63.0220966 164.400397,64.5797731 C164.184595,66.3233553 164.438612,67.8809255 165.142215,69.1919738 C165.460865,69.718696 165.824105,70.2172909 166.227967,70.6823107 C166.571901,71.0946746 166.978777,71.4734219 167.437355,71.8140703 C166.686397,73.1468635 165.700218,74.3335182 164.526281,75.3169224 L164.526281,75.3169224 Z M41.3462479,67.1480831 C41.4541488,66.9105256 41.5620496,66.6774504 41.683438,66.4376518 C41.5620496,66.6774504 41.4541488,66.9105256 41.3462479,67.1480831 Z M39.7951736,74.2860126 C39.9592727,75.930986 40.5639669,77.1501489 41.616,77.9367779 C40.5639669,77.1501489 39.9592727,75.930986 39.7951736,74.2837715 L39.7951736,74.2860126 Z M23.0772893,81.3656734 C22.9536529,81.3656734 22.8345124,81.3567089 22.7153719,81.3499856 C22.8412562,81.3567089 22.9671405,81.3656734 23.0975207,81.3656734 L23.0750413,81.3656734 L23.0772893,81.3656734 Z M11.8533554,61.4713561 C12.3479008,60.2140944 12.853686,58.9389039 13.3662149,57.6592311 C14.4759308,54.8997929 15.6633097,52.1720318 16.9269421,49.4791863 C18.120595,46.9153585 19.6379504,43.6657517 21.4767603,39.7303657 C23.3110744,35.8039442 25.2982479,31.7520206 27.3888264,27.6844093 C29.4050902,23.7452565 31.5538339,19.8749106 33.831405,16.0799511 C35.9894215,12.5009014 37.978843,9.75106167 39.7479669,7.90214742 C41.0675041,6.58885803 41.8587769,6.04202764 42.294876,5.81791682 C42.5010254,5.7242198 42.7228356,5.66950555 42.9490248,5.65655703 C43.077157,5.65655703 43.1221157,5.6744859 43.2030413,5.79998795 C43.5447273,6.34681835 43.7200661,7.11551845 43.7200661,8.08143608 C43.8054876,10.7214615 43.1288595,14.2400013 41.7059174,18.5787868 C40.2672397,22.9713588 38.0238017,27.7942236 35.0475372,32.9173969 C32.0577851,38.058499 28.2857521,43.4371586 23.8393388,48.9054626 C20.1708067,53.3922797 16.1638201,57.5931338 11.8533554,61.4713561 L11.8533554,61.4713561 Z M43.0569256,1.88701308 C43.1693223,1.88701308 43.2794711,1.90718306 43.3873719,1.92062971 C43.2659835,1.90494195 43.144595,1.88925419 43.0164628,1.8914953 L43.0569256,1.88701308 Z M57.5358678,58.1634804 L57.5043967,58.1679627 C57.4751736,58.1679627 57.4414545,58.1612393 57.4122314,58.1589982 C57.4532818,58.163454 57.4946012,58.164952 57.5358678,58.1634804 L57.5358678,58.1634804 Z M251.060496,61.8792378 C252.429488,60.122209 253.245488,59.1742202 254.850512,58.1074527 C255.985719,57.3521993 257.880727,56.5812581 257.880727,56.5991869 C257.880727,58.1074527 256.048661,60.1042801 254.643702,61.4242928 C253.544463,62.4552026 250.363636,64.9204216 248.030281,66.4062763 C248.594512,65.364161 250.379372,62.7555111 251.060496,61.8792378 L251.060496,61.8792378 Z M271.10757,68.7146177 C270.617521,68.0938308 270.051041,67.7778345 269.419372,67.7778345 C268.796694,67.7778345 268.236959,68.0848663 267.749157,68.6922066 C266.345615,69.9741265 264.830538,71.1291085 263.221818,72.1435132 C261.488661,73.2506207 259.724033,74.2187794 257.979636,75.0210961 C256.250975,75.8144484 254.549289,76.4397176 252.921785,76.8767337 C251.325752,77.3070265 249.965752,77.5266551 248.875504,77.5266551 C247.992066,77.5266551 247.767273,77.3406431 247.765025,77.338402 C247.520018,77.0272502 247.320234,76.6832164 247.17157,76.3164567 C246.87895,75.6093702 246.783418,74.8365915 246.895074,74.0798307 C247.000727,73.3537116 247.196298,73.0377154 247.272727,72.4415806 C251.820298,69.4228079 254.684165,67.7195657 257.024264,65.8840981 C259.627372,63.8402074 261.205421,61.3189608 261.713455,58.3898324 C262.140562,55.6960203 261.061554,54.1608612 260.081455,53.347339 C260.03622,53.3100204 259.988116,53.2763001 259.937587,53.2464891 C259.141428,52.7648548 258.227527,52.5112905 257.296264,52.5136467 C256.257719,52.5136467 255.149488,52.8184374 253.998545,53.4190544 C252.047339,54.4387587 250.132099,55.9761589 248.306777,57.9909151 C246.421857,60.0930166 244.832257,62.4407737 243.58162,64.969726 C242.965686,66.1978532 241.628165,68.9768274 241.212298,70.1780614 C237.543669,73.5576525 237.44476,73.1923519 234.819174,75.142116 C232.153124,77.1187734 229.920926,78.6158336 228.181025,79.5951979 C226.479339,80.5521511 225.15081,81.1639736 224.235901,81.4104955 C223.417653,81.6346064 222.961322,81.6794285 222.723041,81.6794285 L222.709554,81.6794285 C222.69392,81.6559329 222.678928,81.6320189 222.664595,81.6077131 C222.513983,81.2491357 222.327405,80.3616569 222.687074,78.3805173 C222.997289,76.654864 223.51881,74.7252698 224.231405,72.6387981 C224.950744,70.5366387 225.795967,68.3986215 226.744595,66.2807742 C227.699967,64.1562037 228.587901,62.2691906 229.388165,60.6780038 C229.732099,60.1087623 229.759074,59.3871255 229.475835,58.5310222 C229.419698,58.3617798 229.32418,58.2081863 229.197091,58.0828005 C228.608132,57.5001124 227.967471,57.2065273 227.293091,57.2065273 L226.052231,57.2065273 C225.191273,57.2065273 224.456198,57.6435433 223.972893,58.4391367 C223.954893,58.4704642 223.93839,58.5026226 223.923438,58.5355044 C222.403835,61.6999491 221.772165,64.5640854 220.753851,67.1615298 C219.998545,68.6697956 219.998545,68.6697956 218.930777,69.6043377 C218.099041,70.3304567 217.105455,70.9243504 216.066909,71.4823863 C215.089603,72.0154718 214.046769,72.4192846 212.96476,72.6836203 C212.687354,72.7515445 212.402932,72.7868952 212.117289,72.7889524 C211.607008,72.7889524 211.024793,72.8001579 210.710083,72.4012407 C210.148099,71.6863272 210.031207,71.1103624 210.148099,70.1780614 C210.282975,69.1202583 210.485289,68.8333965 210.905653,67.1615298 C212.42076,61.1239843 211.476628,58.5108522 210.197554,56.4400683 C209.019636,54.5351263 207.239273,53.5266276 205.049785,53.5266276 C204.780033,53.5266276 204.499041,53.5423154 204.215802,53.5714498 C201.819504,53.8269361 199.220893,55.0483401 196.267107,57.3006538 C195.262281,58.0671128 194.28443,58.9366628 193.33805,59.9048215 L195.24205,55.0841978 C195.585983,54.3513554 195.489322,53.5423154 194.972298,52.8520541 C194.938887,52.8081457 194.902056,52.7669311 194.862149,52.7287931 C194.264198,52.1371406 193.686479,51.8502787 193.095273,51.8502787 L192.130909,51.8502787 C191.083372,51.8502787 190.287603,52.4329668 189.950413,53.45043 L184.993719,67.0024111 C181.22843,67.9884987 177.921719,68.492748 175.152264,68.492748 C175.028628,68.492748 174.913983,68.4882658 174.792595,68.4860247 C174.999405,68.035562 175.150017,67.7016368 175.185983,67.600787 C175.592343,66.4826455 175.863999,65.320327 175.99524,64.1382748 C176.122183,63.0370247 176.055237,61.9221327 175.797421,60.8438458 C175.512386,59.6869686 174.849724,58.6573644 173.913653,57.9169585 C172.924562,57.0720608 171.879273,56.661938 170.802512,56.6529735 C170.894288,56.5222069 170.972612,56.3825527 171.036298,56.2361274 C171.434182,55.3083086 171.200397,54.3087744 170.433851,53.6924696 C170.018962,53.3739184 169.535811,53.15532 169.022149,53.0537538 C168.460165,52.932734 167.898182,52.932734 167.369917,53.0649593 C167.298681,53.0822597 167.228808,53.1047307 167.16086,53.1321926 C165.086017,53.9412326 163.049388,55.1491899 161.109421,56.7179657 C159.194434,58.2664869 157.453366,60.0172969 155.916694,61.9397477 C154.409351,63.806092 153.143563,65.8541175 152.149157,68.035562 L152.03676,68.2977716 C150.620562,68.824432 149.204364,69.3152347 147.797157,69.7522508 C144.973752,70.6307652 142.65838,71.1663901 140.911736,71.3479198 C140.736968,71.3511253 140.562495,71.3323003 140.392463,71.2918921 C140.27557,71.0543347 140.244099,70.6823107 140.302545,70.2094369 C140.385719,69.4810767 140.516099,68.7684043 140.686942,68.0871074 C141.069091,66.7581303 141.293884,65.2319356 141.343339,63.5892033 C141.383802,62.2086807 140.882512,60.3395965 138.308628,59.1719791 C138.199236,59.0654868 138.069202,58.9823648 137.926479,58.9276983 C137.262444,58.6676278 136.556063,58.5316424 135.842645,58.52654 C135.078347,58.52654 134.323041,58.6946231 133.599207,59.024066 C132.356099,59.5910663 131.166942,60.4897507 130.060959,61.6909847 C128.92986,62.9365736 127.900755,64.270572 126.983537,65.6801573 C126.756496,66.027529 126.529455,66.3726597 126.309157,66.7155492 C126.63286,65.2117657 126.794711,63.7572864 126.794711,62.3879694 C126.811297,61.0497972 126.603889,59.7182382 126.181025,58.4481012 C125.713455,57.1124007 124.874975,56.1352775 123.685818,55.5413839 L123.407074,55.4024352 L123.137322,55.2679687 C123.062095,55.2297395 122.982962,55.1996853 122.901289,55.1783244 C122.356597,55.0416825 121.797239,54.9716928 121.23557,54.9699013 C120.498248,54.9699013 119.767669,55.0976445 119.066314,55.3508897 C116.942017,56.1576886 114.743537,57.9079941 112.515835,60.5637073 C111.962843,61.220352 111.412099,61.8994078 110.863603,62.6031157 L114.453554,54.5396085 C114.763769,53.7372918 114.66486,52.9618684 114.177058,52.3836625 C113.781421,51.7337411 113.100298,51.3661994 112.284298,51.3661994 L111.180562,51.3661994 C110.587107,51.3661994 109.726149,51.5970335 108.993322,52.6974176 C108.938659,52.7780243 108.894826,52.8654245 108.862942,52.9573862 L102.559736,71.6863272 C101.044628,75.4603533 99.5295207,78.4768849 96.4993058,82.24867 C94.9527273,84.176023 93.4690909,86.020455 91.1941818,87.530962 C90.304,88.1226145 89.488,87.8985037 89.3486281,87.9433259 C89.1513346,87.8241701 88.9886243,87.6557742 88.876562,87.4547643 C88.8473388,87.3292622 88.7776529,86.7353686 89.2542149,84.8371499 C90.3422149,80.7762619 91.3987438,77.3451253 92.3900826,74.6535544 C93.2165752,72.3853822 94.0851763,70.1326814 94.995438,67.8966132 C95.7484959,66.0656279 96.2767603,64.6694175 96.6139504,63.6250611 C97.0320661,62.3095306 97.0320661,61.2696564 96.6139504,60.4382052 C96.6015071,60.4122684 96.5880083,60.386848 96.5734876,60.3620076 C96.1643636,59.6851929 95.6450909,59.2257657 95.0336529,58.9949316 C94.6715437,58.8614354 94.3073326,58.7336761 93.941157,58.6117021 C93.7124453,58.5551673 93.4776864,58.5265701 93.2420496,58.52654 C92.3406281,58.52654 91.4167273,58.941145 90.4995702,59.7591495 C89.4930679,60.6536325 88.4829882,61.5441066 87.4693554,62.4305504 C86.3813554,63.3852625 85.1157686,64.2906702 83.7108099,65.1221213 C82.9465124,65.5748252 82.0810579,65.8930625 81.125686,66.0790745 C81.5100826,65.1826312 81.7056529,64.2929113 81.7056529,63.416638 C81.7056529,61.7873524 81.190876,60.6130117 80.1793058,59.9205093 C79.5094215,59.2885167 78.7900826,58.9702794 78.0392727,58.9702794 C77.7425455,58.9702794 77.4435702,59.0218249 77.1535868,59.127157 C76.3145673,59.4264058 75.572647,59.9468838 75.0068099,60.6331817 C74.2874711,61.4556684 73.6805289,62.5246769 73.2241983,63.788662 C72.7476364,65.1064336 72.5722975,66.1485489 72.6824463,66.98 C72.794843,68.1789929 73.1410248,69.0485428 73.5951074,69.6850176 C70.6997686,73.1923519 68.2225455,75.5410332 66.2286281,76.6391762 C64.2414545,77.732837 63.070281,77.9614301 62.4386116,77.9614301 C62.2174014,77.9665143 61.997153,77.9308041 61.7889587,77.856098 L61.5169587,77.5826828 C61.4925702,77.5590715 61.4670645,77.5366348 61.4405289,77.5154495 C61.400518,77.4681211 61.3569305,77.4239167 61.3101488,77.3832241 C61.2134876,77.2509988 61.0201653,76.8610459 61.0201653,75.8435828 C61.0201653,74.8574952 61.132562,73.7234945 61.3483636,72.4662328 C61.5686612,71.2000067 61.881124,69.879994 62.2835041,68.5487757 C62.6881322,67.2041108 63.1152397,65.9939124 63.5535868,64.9517971 C63.5754886,64.8993924 63.59352,64.8454622 63.6075372,64.7904373 C63.9244959,63.5174879 63.4232066,62.4619259 62.2632727,61.966641 L61.0336529,61.4220517 C61.0145294,61.4136831 60.9950263,61.4062047 60.9752066,61.3996406 C60.7283387,61.2544473 60.4457673,61.1807207 60.1592066,61.1867354 L59.7455868,61.1867354 C59.4774491,61.1869205 59.2179623,61.2813535 59.0127603,61.4534272 C58.8323549,61.5369622 58.6686118,61.6523734 58.5294545,61.7940757 L58.2529587,62.0674909 C58.1989836,62.1221955 58.1507756,62.1822724 58.1090909,62.2467795 C54.9709752,66.9755178 52.1947769,70.3326978 49.8591736,72.2197109 C47.465124,74.1537873 45.9904793,74.8799063 45.1115372,75.1174638 C44.9861182,74.9866095 44.8746257,74.8431608 44.778843,74.6894121 C44.7743471,74.6782066 44.5765289,74.2322261 44.9946446,72.4639917 L45.0103802,72.3900351 C45.2643967,70.8705638 45.8286281,69.2748948 46.6873388,67.6523325 C47.5707769,65.9782246 48.5598678,64.4139311 49.6231405,62.9975508 C50.693157,61.5789293 51.7249587,60.3732131 52.6893223,59.4117777 C53.7031405,58.403279 54.1999339,58.1567571 54.3595372,58.0984883 C54.9957025,58.1164172 55.4587769,58.277777 55.7712397,58.5870499 C55.8085755,58.6247461 55.8483762,58.6599339 55.8903802,58.692382 C56.4298843,59.0957814 56.9738843,59.2997223 57.5043967,59.2997223 C57.9944463,59.2997223 58.7025455,59.127157 59.2915041,58.3091525 C60.0737851,57.2199739 59.977124,56.0075344 59.0352397,55.0662689 C59.0044844,55.0362704 58.9722225,55.0078465 58.9385785,54.9811068 C57.8213147,54.1086335 56.4886973,53.5527396 55.081124,53.3719912 C55.0275414,53.3641257 54.9734315,53.3603794 54.9192727,53.3607856 L53.8177851,53.3607856 C53.3637025,53.3607856 52.9433388,53.4190544 52.565686,53.533351 C51.0033719,53.8605527 49.2162645,54.8556048 47.1032066,56.5678114 C44.9721653,58.2934647 42.8636033,61.3615418 40.6583802,65.9490902 C40.2087934,66.8455335 39.8401322,67.7150835 39.5344132,68.5644635 C38.3654876,69.4698712 37.1785785,70.3618322 35.9871736,71.2179356 C34.1749195,72.5270645 32.2969606,73.7433207 30.360595,74.8619774 C28.5622479,75.8928872 26.9594711,76.6996862 25.5949752,77.2711687 C24.6463471,77.6656038 23.8708099,77.8650624 23.2840992,77.8650624 C23.1550517,77.8667929 23.026188,77.8547721 22.8997025,77.8292047 C22.8850683,77.7856962 22.8723182,77.7415803 22.8614876,77.6969793 C22.7343596,77.1338045 22.6754923,76.5574529 22.6861488,75.9802904 C22.6861488,75.2653769 22.7535868,74.4944357 22.8794711,73.6853957 C23.0143471,72.8360157 23.1312397,71.9911179 23.223405,71.1686312 C23.4099835,70.4066544 23.529124,69.6760531 23.5830744,68.9925151 C23.6235372,68.3784515 23.6909752,67.7599056 23.7786446,67.1480831 C24.1023471,64.7949195 23.8460826,63.1252939 23.0008595,62.0383565 C22.2041962,61.1002656 21.0701626,60.5112321 19.8425124,60.3978653 C23.9110596,56.2612185 27.6897413,51.8507922 31.1518678,47.1977381 C35.0250579,41.9669917 38.3002975,36.8639884 40.8921653,32.0254358 C43.4930248,27.1711955 45.4464793,22.5970937 46.7008264,18.4308736 C47.9686612,14.2287958 48.5643636,10.6945682 48.4721983,7.92679961 C48.4612046,7.04111677 48.3319358,6.16083904 48.0878017,5.30918526 C47.8344374,4.37176152 47.3804392,3.50016282 46.7570248,2.75432195 C46.1604033,2.04748355 45.4172807,1.4778806 44.5787769,1.08469636 C44.1019002,0.864839534 43.5823158,0.752362453 43.0569256,0.755253455 C42.4949421,0.755253455 41.8992397,0.878514404 41.2833058,1.11831298 C39.5231736,1.74582327 37.502281,3.37510891 35.1059835,6.10253756 C32.8265785,8.69549972 30.3111405,12.1109486 27.6293554,16.2569987 C24.9543141,20.3828788 22.1533884,25.2886646 19.2985124,30.8398896 C16.2523802,36.7903718 13.3909009,42.8330262 10.7181488,48.9592492 C7.7349454,55.7875485 4.94490636,62.6981214 2.35133884,69.6827765 C-0.359669421,76.9641369 0.0517024802,75.9332272 0.0517024802,75.9332272 C0.0172007116,76.0434965 -0.000233820548,76.1583662 8.28914018e-10,76.2738756 L8.28914018e-10,76.8251882 C8.28914018e-10,77.0425757 0.0651900835,77.255481 0.182082645,77.4392518 C0.237329863,77.6459427 0.344924706,77.8350124 0.494545455,77.9883234 C0.519378342,78.0243063 0.546404421,78.0587347 0.575471075,78.0914143 C0.620429753,78.1698531 0.678876034,78.2438097 0.74631405,78.3110429 L0.883438017,78.4455094 C1.04753719,78.6113514 1.25659504,78.7189246 1.4791405,78.7592646 C1.66347108,78.8601144 1.87477686,78.9161421 2.10181818,78.9161421 L3.75629752,78.9161421 C4.74538843,78.9161421 5.5793719,78.4768849 6.21778512,76.8901803 C7.41143802,73.9251942 9.88641322,71.040888 12.1793058,68.5801512 C14.3530579,66.2493987 16.6414545,65.1086747 19.1703802,65.0997102 C19.1609569,65.5329922 19.1211462,65.9650865 19.0512397,66.3928297 L18.5072397,69.6424365 C18.0419174,71.4980741 17.6889917,73.4254271 17.4574545,75.3662268 C17.1877025,77.6230227 17.7721653,79.5436524 19.2018512,81.0765704 L19.2310744,81.1079459 C19.9549091,81.8251005 20.8136198,82.2553933 21.7869752,82.3853776 C22.1983471,82.4593342 22.6321983,82.497433 23.0772893,82.497433 C24.4552727,82.497433 26.0355702,82.1343735 27.7754711,81.4217011 C30.039205,80.4781556 32.2191696,79.3461269 34.2922314,78.0376277 C35.8094215,77.085247 37.2974797,76.087501 38.7543802,75.0457483 C39.0893223,76.9686191 40.0154711,78.3782762 41.5373223,79.2321384 C42.3488264,79.6915656 43.3738843,79.9268819 44.5787769,79.9268819 L45.1295207,79.9268819 C45.1768701,79.9268887 45.2241721,79.9238945 45.2711405,79.9179175 C46.9436033,79.7072533 48.8183802,78.8847666 51.0101157,77.3966708 C52.4038347,76.448682 53.8919669,75.142116 55.4475372,73.4949015 C55.4452893,74.3397992 55.5194711,75.1488393 55.6655868,75.9152983 C56.0185124,77.7866236 56.677157,79.3217827 57.6257851,80.4737123 C57.6482645,80.5028467 57.6752397,80.52974 57.6999669,80.5543922 L57.9764628,80.8300485 L58.2529587,81.1057048 C58.3203967,81.1729381 58.3945785,81.2289658 58.4732562,81.2782702 C58.5069752,81.3051634 58.5406942,81.3342979 58.5789091,81.35895 C58.6643306,81.4396299 58.7587438,81.5091043 58.8643967,81.565132 C59.0241496,81.7052792 59.2065659,81.8174277 59.4039008,81.896816 C60.2243967,82.4122709 61.3123967,82.6722394 62.6409256,82.6722394 C65.0012562,82.6722394 67.6673058,81.5561676 70.5693884,79.3531582 C73.0578512,77.4616629 75.6946777,74.7812976 78.4236694,71.3860187 C79.8397068,71.2786103 81.2320144,70.9629316 82.5553719,70.4492355 C84.6886612,69.6469187 86.8084628,68.5442935 88.8563306,67.1704942 C89.0833719,67.0180988 89.3059174,66.8657035 89.5172231,66.7177903 C88.4024338,69.5921554 87.3575879,72.4929988 86.3836033,75.4177723 C85.7174512,77.3828711 85.114695,79.368767 84.5762645,81.3723967 C84.284844,82.3434017 84.0269292,83.32409 83.8029752,84.3127306 C83.5557025,85.3951859 83.4298182,86.4731589 83.4298182,87.5152742 C83.4298182,88.6156583 83.6186446,89.6555325 83.9918017,90.6035213 C84.3964298,91.6411543 85.1202645,92.5129454 86.1408264,93.1920012 C86.7986534,93.5699526 87.5440964,93.7700394 88.3033388,93.7724482 C89.5194711,93.7724482 92.1697851,93.0687403 93.4690909,92.0557594 C94.7998678,91.0181263 100.469157,86.0988938 107.86486,75.4603533 C109.577785,72.9951343 110.730975,71.0677813 112.264066,68.781851 C113.650618,66.6823607 115.183754,64.6828282 116.852099,62.7980921 C118.279537,61.2113876 119.563107,60.2073711 120.664595,59.8151772 C120.686513,59.8066726 120.708248,59.7977061 120.729785,59.7882839 C120.869322,59.7221366 121.020568,59.684059 121.174876,59.6762285 C121.206598,59.6752966 121.238314,59.6783079 121.269289,59.6851929 C121.30076,59.7994894 121.350215,60.0527346 121.350215,60.5345729 C121.350215,61.4758383 121.260298,62.5538114 121.087207,63.7326343 C120.907372,64.9316271 120.700562,66.1687188 120.473521,67.4013283 C120.248727,68.6070445 120.046413,69.570721 119.873322,70.2632235 C119.671008,70.9714137 119.540628,71.6885683 119.491174,72.4012407 C119.450711,72.94583 119.356298,73.4545615 119.203438,73.9072654 C119.188378,73.9512146 119.176361,73.9961423 119.167471,74.0417319 C118.832529,75.7001519 119.437223,76.6526229 120.001455,77.1635955 C120.599405,77.7081848 121.201851,78.104861 121.79081,78.3356951 C121.847008,78.3581062 121.903207,78.3760351 121.963901,78.3894817 C122.172959,78.4343039 122.382017,78.4611972 122.593322,78.4611972 C123.658843,78.4611972 124.62995,77.8717857 125.475174,76.7153739 C126.223736,75.6911875 127.208331,74.2411905 128.404231,72.4102051 L128.426711,72.3765885 C128.975207,71.4644575 129.640595,70.4133777 130.402645,69.2547248 C131.160198,68.1005541 131.93124,67.0158577 132.695537,66.0320112 C133.408132,65.1109158 134.127471,64.3735912 134.831074,63.8357252 C135.219967,63.5376578 135.577388,63.3875036 135.892099,63.3875036 C135.964033,63.3875036 136.035967,63.3942269 136.107901,63.4099147 C136.128132,63.5242112 136.139372,63.7102232 136.110149,63.9926028 C136.020231,64.8711172 135.842645,65.9378847 135.579636,67.1615298 C135.298645,68.4680958 135.085091,69.7522508 134.941223,70.9758959 C134.761388,72.5177783 135.240198,73.8445143 136.323702,74.8149142 C137.198149,75.6665353 138.580628,76.0833814 140.549818,76.0833814 L141.10281,76.0833814 L141.176992,76.0811403 C142.78135,75.9590651 144.371651,75.6950697 145.929124,75.2922702 C147.505278,74.899 149.063132,74.4361286 150.598083,73.9050243 C150.591339,74.0305263 150.56886,74.169475 150.562116,74.2904949 C150.48119,76.5428086 151.191537,78.6247981 152.679669,80.4759534 C154.246479,82.4257175 156.316826,83.4118051 158.83676,83.4118051 C160.176529,83.4118051 161.559008,83.0823622 162.950479,82.4324409 C164.287979,81.7959052 165.543848,81.0013313 166.691041,80.0658306 C167.919106,79.0610217 169.037286,77.9297102 170.026975,76.6907217 C170.937388,75.5589621 171.775868,74.3846214 172.522182,73.2013163 L172.612099,73.0377154 C173.500033,73.1273597 174.450909,73.1789052 175.478215,73.1789052 C176.098645,73.1789052 176.757289,73.1609763 177.433917,73.1296008 C179.077157,73.051162 180.958678,72.7777468 183.04476,72.3317663 L180.376463,79.4405614 C180.3626,79.4772894 180.350596,79.5146883 180.340496,79.5526169 C180.037025,80.7740208 180.484364,81.793725 181.540893,82.311421 C181.883645,82.5228016 182.282496,82.6259224 182.685091,82.6072473 L183.235835,82.6072473 C184.283372,82.6072473 185.07914,82.0245592 185.416331,81.0093372 L186.371702,78.4320628 C187.443967,75.4962111 188.064397,74.9695506 189.709884,72.4034818 C191.373355,69.8060374 193.104264,67.4730438 194.850909,65.4627698 C196.577322,63.479389 198.301488,61.8501034 199.976198,60.6219761 C201.572231,59.4476354 202.92324,58.755133 203.991008,58.5579155 C204.148364,58.5287811 204.296727,58.5130933 204.431603,58.5130933 C204.899174,58.5130933 205.168926,58.6834175 205.386975,59.1181925 C205.600529,59.5440031 205.865785,60.6959327 205.22962,63.5578278 C204.939636,64.6223542 204.690116,66.3726597 204.465322,67.3542651 C204.21805,68.4344792 204.094413,69.5371044 204.094413,70.626283 C204.094413,71.7983826 204.341686,72.9077311 204.824992,73.9251942 C205.342017,75.0166139 206.274909,75.9063339 207.592198,76.5697019 C208.734149,77.2016944 209.952529,77.524414 211.220364,77.524414 C211.849785,77.524414 212.501686,77.4437341 213.153587,77.2868565 C214.719497,76.908075 216.230379,76.3311642 217.649455,75.5701676 C216.390612,80.9757205 216.959339,83.6560859 219.321917,85.3436404 L219.353388,85.3660515 C220.367207,86.0383839 221.506909,86.3812735 222.741025,86.3812735 C226.937917,86.3812735 231.361851,83.7591769 240.454744,76.9686191 C241.212298,79.9851507 242.226116,80.5073289 244.242512,81.4956576 C245.164165,82.0492114 246.216198,82.2598755 247.839207,82.2598755 C249.340826,82.2598755 250.660364,82.1119624 251.761851,81.8161361 C255.672011,80.9840614 259.437974,79.5825319 262.938579,77.6566393 C266.404893,75.7449741 269.12714,73.8624432 271.03114,72.0628333 C271.058702,72.0364833 271.084959,72.0088101 271.109818,71.9799123 C272.024727,70.9176271 272.022479,69.6760531 271.109818,68.7168588 L271.10757,68.7146177 Z" id="Shape" fill="#373737" fill-rule="nonzero"></path>
                </g>
            </g>
        </g>
    </g>
</svg>