<svg viewBox="0 0 83 53" xmlns="http://www.w3.org/2000/svg" fill-rule="evenodd" clip-rule="evenodd" stroke-linejoin="round" stroke-miterlimit="1.414">
  <path d="M30.484 50.793c2.231-.463 4.176-1.334 5.808-2.585a14.515 14.515 0 0 0 3.659-4.054c1.524-2.421 2.286-5.155 2.286-8.216 0-2.952-.667-5.468-2-7.549-1.347-2.068-3.319-3.578-5.958-4.544 1.728-.87 3.047-1.85 3.931-2.924 1.592-1.905 2.381-4.435 2.381-7.591 0-3.047-.789-5.658-2.353-7.848C35.612 1.918 31.164.081 24.893 0H0v51.486h23.206c2.612 0 5.047-.231 7.278-.693zM10.27 8.937h11.209c2.462 0 4.489.272 6.08.802 1.85.776 2.762 2.354 2.762 4.748 0 2.176-.694 3.672-2.095 4.529-1.388.844-3.197 1.279-5.441 1.279H10.27V8.937zm0 33.612V28.81h12.678c2.217.028 3.918.313 5.142.885 2.19.993 3.278 2.829 3.278 5.509 0 3.169-1.129 5.318-3.387 6.434-1.238.598-2.979.911-5.21.911H10.27zm40.686 5.55c3.877 3.115 8.352 4.68 13.412 4.68 6.135 0 10.923-1.85 14.324-5.55 2.204-2.34 3.428-4.625 3.7-6.883H72.217c-.585 1.115-1.265 1.986-2.04 2.611-1.428 1.17-3.265 1.755-5.536 1.755-2.136 0-3.959-.476-5.482-1.442-2.503-1.537-3.836-4.203-3.986-8.025h27.736c.041-3.292-.068-5.809-.326-7.564-.463-2.979-1.483-5.604-3.034-7.862-1.727-2.571-3.931-4.448-6.584-5.645-2.652-1.184-5.645-1.782-8.964-1.782-5.577 0-10.107 1.768-13.603 5.291-3.496 3.51-5.25 8.57-5.25 15.167 0 7.033 1.931 12.121 5.808 15.249zm7.114-25.315c1.415-1.455 3.387-2.176 5.945-2.176 2.353 0 4.312.68 5.903 2.054 1.592 1.36 2.476 3.373 2.653 6.012H55.418c.367-2.475 1.251-4.448 2.652-5.89zM74.543 2.952H52.167v5.196h22.376V2.952z" fill-rule="nonzero"/>
</svg>
