<svg viewBox="0 0 58 58" xmlns="http://www.w3.org/2000/svg" fill-rule="evenodd" clip-rule="evenodd" stroke-linejoin="round" stroke-miterlimit="1.414">
  <path d="M1.16 19.284h11.982V58H1.16V19.284zm5.943-5.073c3.913 0 7.086-3.205 7.086-7.15 0-3.946-3.173-7.135-7.086-7.135C3.173-.074 0 3.115 0 7.061c0 3.945 3.173 7.15 7.103 7.15zm25.204 23.465c0-5.443 2.496-8.68 7.295-8.68 4.413 0 6.539 3.108 6.539 8.68V58h11.918V33.489c0-10.372-5.879-15.396-14.092-15.396-8.198 0-11.66 6.409-11.66 6.409v-5.218H20.808V58h11.499V37.676z" fill-rule="nonzero"/>
</svg>
