<?xml version="1.0" encoding="UTF-8"?>
<svg width="700px" height="478px" viewBox="0 0 700 478" version="1.1" xmlns="http://www.w3.org/2000/svg" xmlns:xlink="http://www.w3.org/1999/xlink">
    <!-- Generator: Sketch 43.2 (39069) - http://www.bohemiancoding.com/sketch -->
    <title>Group 15</title>
    <desc>Created with Sketch.</desc>
    <defs></defs>
    <g id="Page-1" stroke="none" stroke-width="1" fill="none" fill-rule="evenodd">
        <g id="case-study" transform="translate(-350.000000, -4522.000000)">
            <g id="Group-15" transform="translate(350.000000, 4522.000000)">
                <g id="Page-1" transform="translate(228.000000, 184.000000)" fill="#1C1C1B">
                    <polygon id="Fill-1" points="0.005424692 244.660539 19.5386556 257.477651 39.0762264 244.660539 39.0762264 283.971413 30.0213305 283.971413 30.0213305 262.139997 19.5386556 269.018477 9.0581507 262.139997 9.0581507 283.971413 0.0032548152 283.971413"></polygon>
                    <path d="M45.4845235,256.592716 L54.4309256,256.592716 L54.4309256,283.972064 L45.4845235,283.972064 L45.4845235,256.592716 Z M45.2718756,248.487874 C45.2718756,246.000421 47.3896753,243.829868 50.0347552,243.829868 C52.6320977,243.829868 54.6956505,246.000421 54.6956505,248.487874 C54.6956505,251.086025 52.6320977,253.256577 50.0347552,253.256577 C47.3896753,253.256577 45.2718756,251.086025 45.2718756,248.487874 L45.2718756,248.487874 Z" id="Fill-2"></path>
                    <path d="M107.215132,266.389504 L107.215132,283.973149 L103.932108,283.973149 L103.932108,266.812762 C103.932108,262.204679 101.124287,258.974898 97.1555828,258.974898 C92.6552583,258.974898 89.4785587,262.046229 89.4785587,266.389504 L89.4785587,283.973149 L86.1955351,283.973149 L86.1955351,266.812762 C86.1955351,262.204679 83.4441313,258.974898 79.4732567,258.974898 C74.9729322,258.974898 71.7962326,262.046229 71.7962326,266.389504 L71.7962326,283.973149 L68.513209,283.973149 L68.513209,256.591631 L71.7962326,256.591631 L71.7962326,260.618006 C73.1198575,257.757218 76.1381561,255.955659 79.8963827,255.955659 C84.0234884,255.955659 87.2023579,258.289003 88.6323067,261.889949 C89.7975305,258.289003 93.3973562,255.955659 97.6307858,255.955659 C103.244257,255.955659 107.215132,260.298934 107.215132,266.389504" id="Fill-3"></path>
                    <path d="M129.240249,253.520951 L135.699972,245.947893 L139.193474,246.742316 L132.097977,253.520951 L129.240249,253.520951 Z M122.144752,253.520951 L119.234947,253.520951 L125.692501,245.89363 L129.240249,246.690222 L122.144752,253.520951 Z M134.165869,256.592282 L137.446723,256.592282 L137.446723,283.97163 L134.165869,283.97163 L134.165869,279.469904 C132.681674,282.489143 129.188172,284.607602 125.16522,284.607602 C119.128623,284.607602 114.895194,280.264326 114.895194,274.175927 L114.895194,256.592282 L118.176047,256.592282 L118.176047,273.750499 C118.176047,278.358581 121.246423,281.590534 125.586177,281.590534 C130.405473,281.590534 134.165869,278.254395 134.165869,274.015306 L134.165869,256.592282 Z" id="Fill-4"></path>
                    <path d="M168.365949,266.389504 L168.365949,283.973149 L165.082925,283.973149 L165.082925,266.812762 C165.082925,262.204679 162.012549,258.974898 157.672796,258.974898 C152.855669,258.974898 149.095273,262.311037 149.095273,266.547955 L149.095273,283.973149 L145.812249,283.973149 L145.812249,246.954379 L149.095273,246.954379 L149.095273,261.095527 C150.579469,258.076289 154.07297,255.955659 158.095922,255.955659 C164.132519,255.955659 168.365949,260.298934 168.365949,266.389504" id="Fill-5"></path>
                    <path d="M178.268181,268.562227 L198.068307,268.562227 C197.645181,263.053365 194.255834,258.974898 188.486131,258.974898 C183.139555,258.974898 178.956032,262.894915 178.268181,268.562227 M197.697258,278.147387 L199.762981,280.370032 C197.432533,282.911749 192.615407,284.609121 188.592455,284.609121 C181.28648,284.609121 174.878834,278.412194 174.878834,270.203165 C174.878834,262.098322 180.967508,255.955659 188.379807,255.955659 C196.482127,255.955659 201.351331,262.152586 201.351331,271.581466 L178.216104,271.581466 C178.797631,277.246607 182.981154,281.589883 188.592455,281.589883 C192.03388,281.589883 195.792106,280.211582 197.697258,278.147387" id="Fill-6"></path>
                    <polygon id="Fill-7" points="207.75876 283.972064 211.041784 283.972064 211.041784 246.953293 207.75876 246.953293"></polygon>
                    <path d="M218.081298,292.603482 L218.92972,289.690601 C219.934373,290.220216 221.151674,290.485023 222.316897,290.485023 C224.328373,290.485023 225.758322,289.744865 226.765145,287.945477 L228.405572,284.396624 L216.387709,256.591848 L219.98862,256.591848 L230.100246,280.476606 L239.682421,256.591848 L243.23017,256.591848 L230.629695,287.361598 C228.882945,291.704874 226.235695,293.452168 222.423221,293.504262 C220.886949,293.504262 219.352846,293.187361 218.081298,292.603482" id="Fill-8"></path>
                    <path d="M175.992198,153.247292 C164.85856,153.247292 155.831872,144.219964 155.831872,133.08069 C155.831872,121.943585 164.85856,112.916258 175.992198,112.916258 C187.125836,112.916258 196.150353,121.943585 196.150353,133.08069 C196.150353,144.219964 187.125836,153.247292 175.992198,153.247292 L175.992198,153.247292 Z M121.513101,79.7024659 L0,0 L0,232.648268 L156.148674,232.648268 L156.148674,192.953206 L195.833551,192.953206 L195.833551,232.648268 L243.026202,232.648268 L243.026202,0 L121.513101,79.7024659 Z" id="Fill-9"></path>
                </g>
                <g id="Group-9">
                    <g id="Page-1" transform="translate(0.000000, 15.000000)">
                        <path d="M21.4801906,92.1053115 L21.4801906,109.57615 L19.8942012,109.57615 L19.8942012,92.1053115 C19.8942012,89.3440581 18.081004,88.0766249 15.9060605,88.0766249 C14.411066,88.0766249 12.7346401,88.3939014 11.012996,88.937565 C11.5109553,89.752224 11.8285998,90.8378783 11.8285998,92.1053115 L11.8285998,109.57615 L10.2426105,109.57615 L10.2426105,92.1053115 C10.2426105,89.3440581 8.42941323,88.0766249 6.25502801,88.0766249 C4.84991181,88.0766249 3.62622698,88.3487355 2.1758925,88.8009521 L2.1758925,109.57615 L0.589903175,109.57615 L0.589903175,86.9458046 L2.1758925,86.9458046 L2.1758925,87.6695742 C3.71778004,87.0361364 5.21277456,86.4930304 6.25502801,86.4930304 C7.88511912,86.4930304 9.3354536,87.0361364 10.3782653,88.0766249 C12.2807826,87.2619659 14.4562843,86.4930304 15.9060605,86.4930304 C18.9429426,86.5381963 21.4801906,88.3487355 21.4801906,92.1053115" id="Fill-1" fill="#393536"></path>
                        <path d="M42.2374469,77.395782 L43.2802586,78.7072659 L35.4859668,84.139441 L34.4894899,82.8262843 L42.2374469,77.395782 Z M34.5347082,77.395782 L35.5311851,78.7072659 L27.7821116,84.139441 L26.7404164,82.8262843 L34.5347082,77.395782 Z M37.4805954,109.576206 L37.4805954,108.851879 C35.7578348,109.53104 33.9909723,110.02898 32.7667292,110.02898 C29.3239992,110.02898 26.514325,108.082386 26.514325,103.737538 L26.514325,86.9453028 L28.0550961,86.9453028 L28.0550961,103.737538 C28.0550961,106.995616 30.1390447,108.444271 32.7667292,108.444271 C34.2170637,108.444271 35.803053,108.172718 37.4805954,107.674777 L37.4805954,86.9453028 L39.0654683,86.9453028 L39.0654683,109.576206 L37.4805954,109.576206 Z" id="Fill-2" fill="#393536"></path>
                        <path d="M44.7102728,109.57615 L44.7102728,75.6297954 L46.2510438,75.6297954 L46.2510438,87.5792424 C47.7912566,86.9909705 49.3778042,86.4930304 50.9637935,86.4930304 C54.4534166,86.4930304 57.261416,88.4390673 57.261416,92.7844728 L57.261416,109.57615 L55.675985,109.57615 L55.675985,92.7844728 C55.675985,89.5252793 53.591478,88.0766249 50.9637935,88.0766249 C49.513459,88.0766249 47.928028,88.3487355 46.2510438,88.8912839 L46.2510438,109.57615 L44.7102728,109.57615 Z" id="Fill-3" fill="#393536"></path>
                        <path d="M73.0576687,92.7843613 C73.0576687,89.5251677 70.9731618,88.0765134 68.3443608,88.0765134 C65.7172345,88.0765134 63.6321693,89.5251677 63.6321693,92.7843613 L63.6321693,97.491094 L73.0576687,97.491094 L73.0576687,92.7843613 Z M73.7376177,107.222951 L73.7376177,108.896877 C71.7435473,109.621205 69.7037005,110.029371 68.3443608,110.029371 C64.9016307,110.029371 62.0913983,108.082776 62.0913983,103.737371 L62.0913983,92.7843613 C62.0913983,88.4395134 64.9016307,86.4929189 68.3443608,86.4929189 C71.8339839,86.4929189 74.6436581,88.4395134 74.6436581,92.7843613 L74.6436581,99.0300802 L63.6321693,99.0300802 L63.6321693,103.737371 C63.6321693,106.996006 65.7172345,108.444103 68.3443608,108.444103 C69.5680456,108.444103 71.6073342,107.991887 73.7376177,107.222951 L73.7376177,107.222951 Z" id="Fill-4" fill="#393536"></path>
                        <polygon id="Fill-5" fill="#393536" points="79.5406304 109.575983 81.1266197 109.575983 81.1266197 75.6296281 79.5406304 75.6296281"></polygon>
                        <path d="M96.9870712,114.690714 L96.9870712,108.852046 C95.265427,109.531207 93.4974481,110.029147 92.2748797,110.029147 C88.8310332,110.029147 86.0208008,108.082553 86.0208008,103.737147 L86.0208008,86.94547 L87.5615718,86.94547 L87.5615718,103.737147 C87.5615718,106.995783 89.646637,108.44388 92.2748797,108.44388 C93.724656,108.44388 95.3106453,108.172885 96.9870712,107.674387 L96.9870712,86.94547 L98.5730605,86.94547 L98.5730605,114.690714 C98.5730605,119.035562 95.7645029,120.982157 92.2748797,120.982157 C90.2808094,120.982157 88.2415208,120.574548 86.2022321,119.895387 L86.2022321,118.175737 C88.3771756,118.94523 90.4164642,119.398562 92.2748797,119.398562 C94.9025643,119.398562 96.9870712,117.949908 96.9870712,114.690714" id="Fill-6" fill="#393536"></path>
                        <polygon id="Fill-7" fill="#868484" points="63.1263945 72.0454631 56.9443298 23.7756636 38.4993465 56.9162811 19.952036 23.8777051 13.7699713 72.0454631 0.0643662686 72.0454631 10.0603975 -2.84217094e-14 20.8798481 -2.84217094e-14 38.4993465 32.8322627 56.0165177 -2.84217094e-14 66.8365265 -2.84217094e-14 76.8319995 72.0454631"></polygon>
                        <path d="M85.7947094,20.5844977 L98.5730605,20.5844977 L98.5730605,72.0459092 L85.7947094,72.0459092 L85.7947094,20.5844977 Z M85.7947094,-2.84217094e-14 L98.5730605,-2.84217094e-14 L98.5730605,12.7618756 L85.7947094,12.7618756 L85.7947094,-2.84217094e-14 Z" id="Fill-8" fill="#868484"></path>
                        <path d="M60.8079807,33.4556636 L76.4194525,49.4248756 L71.8362169,13.640659 L60.8079807,33.4556636 Z M26.7446591,13.7544101 L22.1597488,49.4839816 L37.8281621,33.4969263 L26.7446591,13.7544101 Z M39.533617,33.7233134 L49.3510082,51.2119954 L59.1069918,33.6831659 L49.3526829,23.7048479 L39.533617,33.7233134 Z M3.27413847,70.7169166 L18.04656,70.7169166 L20.2723042,53.3749401 L3.27413847,70.7169166 Z M80.534316,70.7169166 L95.3089706,70.7169166 L78.306897,53.3241982 L80.534316,70.7169166 Z M98.57641,72.0930825 L79.3223545,72.0930825 L76.7086262,51.6904194 L60.1101677,34.7097143 L49.3565907,54.0317972 L38.5304411,34.7470737 L21.8694586,51.7461797 L19.257405,72.0930825 L0,72.0930825 L20.5620362,51.1127419 L25.9089583,9.4536129 L38.8318963,32.4731659 L49.3549159,21.7381797 L59.8048048,32.4291152 L72.6696847,9.31309677 L78.0160486,51.059212 L98.57641,72.0930825 Z" id="Fill-9" fill="#393536"></path>
                    </g>
                    <g id="Page-1" transform="translate(254.000000, 15.000000)">
                        <path d="M45.2530038,97.5825968 L45.2530038,76.8471558 L49.0187934,76.8471558 L49.0187934,80.7422406 C50.853874,77.8400249 53.2114212,76.3889171 56.0913232,76.3889171 C58.8697354,76.3889171 60.7622042,77.8400249 61.7687296,80.7422406 C63.5528978,77.8273115 65.8724281,76.369847 68.7267623,76.369847 C70.5617313,76.369847 71.9830368,76.9076558 72.9895622,77.9832175 C73.9966459,79.058835 74.4996295,80.5640304 74.4996295,82.4988037 L74.4996295,97.5825968 L70.7146919,97.5825968 L70.7146919,83.0907 C70.7146919,80.7231147 69.778506,79.5393221 67.9050177,79.5393221 C65.9550492,79.5393221 63.9096198,80.9204507 61.7687296,83.6825963 L61.7687296,97.5825968 L57.983792,97.5825968 L57.983792,83.0907 C57.983792,80.7104014 57.0280674,79.5202521 55.1166181,79.5202521 C53.2178411,79.5202521 51.1851956,80.9076816 49.0187934,83.6825963 L49.0187934,97.5825968 L45.2530038,97.5825968 Z" id="Fill-1" fill="#414042"></path>
                        <path d="M94.1673485,97.5825968 L94.1673485,93.687512 C92.1665792,96.602441 89.7387483,98.0599055 86.8844141,98.0599055 C85.0745664,98.0599055 83.6348386,97.4903134 82.5641144,96.3510733 C81.4939484,95.2118332 80.9585863,93.6747986 80.9585863,91.7400253 L80.9585863,76.8471558 L84.7239851,76.8471558 L84.7239851,90.5180369 C84.7239851,92.0709631 84.9506348,93.1751857 85.4028176,93.8307046 C85.8550004,94.4862793 86.6103132,94.8140387 87.6681976,94.8140387 C89.9620484,94.8140387 92.1280599,93.305665 94.1673485,90.2889175 L94.1673485,76.8471558 L97.9327473,76.8471558 L97.9327473,97.5825968 L94.1673485,97.5825968 Z M84.7239851,73.0857843 L89.3312255,66.9568276 L92.982183,66.9568276 L86.8458948,73.0857843 L84.7239851,73.0857843 Z M91.4531352,73.0857843 L96.0408368,66.9568276 L99.6917943,66.9568276 L93.5744866,73.0857843 L91.4531352,73.0857843 Z" id="Fill-2" fill="#414042"></path>
                        <path d="M103.948453,97.5825968 L103.948453,67.4341364 L107.71441,67.4341364 L107.71441,80.7422406 C109.70234,77.8400249 112.136312,76.3889171 115.016325,76.3889171 C116.813333,76.3889171 118.24692,76.958565 119.317086,78.0978051 C120.387811,79.2370452 120.923173,80.7676673 120.923173,82.6897272 L120.923173,97.5825968 L117.157216,97.5825968 L117.157216,83.9117157 C117.157216,82.3715028 116.931124,81.2736369 116.478941,80.618118 C116.0262,79.9625991 115.277587,79.6347839 114.232542,79.6347839 C111.925851,79.6347839 109.753141,81.1431576 107.71441,84.1599608 L107.71441,97.5825968 L103.948453,97.5825968 Z" id="Fill-3" fill="#414042"></path>
                        <path d="M142.092585,96.9143088 C139.569294,97.6780585 137.409423,98.0599055 135.612415,98.0599055 C132.553761,98.0599055 130.059498,97.044788 128.12851,95.0144972 C126.19808,92.9842622 125.232866,90.3525401 125.232866,87.1193866 C125.232866,83.9753382 126.083081,81.3977594 127.784628,79.3865945 C129.485617,77.3754295 131.661677,76.369847 134.31225,76.369847 C136.82326,76.369847 138.76318,77.2608419 140.133126,79.0428876 C141.503073,80.8249332 142.188046,83.3580152 142.188046,86.6420779 L142.169066,87.8067447 L129.074745,87.8067447 C129.622947,92.7328387 132.037938,95.1958857 136.319718,95.1958857 C137.887285,95.1958857 139.811574,94.7758429 142.092585,93.9357571 L142.092585,96.9143088 Z M129.246686,84.9809765 L138.403108,84.9809765 C138.403108,81.1240876 136.963381,79.195671 134.083367,79.195671 C131.190514,79.195671 129.578287,81.1240876 129.246686,84.9809765 Z" id="Fill-4" fill="#414042"></path>
                        <polygon id="Fill-5" fill="#414042" points="148.519722 97.5825968 152.285456 97.5825968 152.285456 67.4341364 148.519722 67.4341364"></polygon>
                        <polygon id="Fill-6" fill="#414042" points="158.723981 105.124465 162.087997 97.5825968 154.059799 76.8471558 158.131119 76.8471558 164.075927 92.4655793 170.422675 76.8471558 173.978172 76.8471558 162.64234 105.124465"></polygon>
                        <polygon id="Fill-7" fill="#27AAE1" points="0 97.5825968 0 69.3243571 5.56263007 69.3243571 13.399963 91.1863249 21.4667367 69.3243571 26.436784 69.3243571 26.436784 97.5825968 22.6901424 97.5825968 22.6901424 74.5941581 14.8909939 95.6923203 11.0105397 95.6923203 3.44077621 74.5368922 3.44077621 97.5825968"></polygon>
                        <polygon id="Fill-8" fill="#27AAE1" points="33.8960698 97.5825968 37.9103366 97.5825968 37.9103366 69.3244129 33.8960698 69.3244129"></polygon>
                        <polygon id="Fill-9" fill="#F1F2F2" points="118.683472 62.9696267 132.964075 62.9696267 132.964075 11.350023 118.683472 11.350023"></polygon>
                        <polygon id="Fill-10" fill="#F2F2F2" points="113.160143 3.80954839 113.160143 54.8328507 93.2406529 54.8328507 80.7849705 39.7755438"></polygon>
                        <polygon id="Fill-11" fill="#E6E6E6" points="50.6479355 6.2775023 50.6479355 57.3006931 92.9927897 57.3006931"></polygon>
                        <path d="M116.442655,65.8652627 L129.827266,65.8652627 L129.827266,15.1406129 L116.442655,15.1406129 L116.442655,65.8652627 Z M130.723258,66.7602166 L115.546105,66.7602166 L115.546105,14.2451014 L130.723258,14.2451014 L130.723258,66.7602166 Z" id="Fill-12" fill="#58595B"></path>
                        <polygon id="Fill-13" fill="#58595B" points="107.999676 60.8684088 60.6991219 60.7747313 73.6058706 46.9597097 74.2478585 47.6773456 62.7518085 59.883123 107.1115 59.971782 107.545819 10.225894 76.0577063 45.7095622 75.4570289 45.0170184 108.462466 7.84771429"></polygon>
                        <polygon id="Fill-14" fill="#58595B" points="89.9665144 63.6912774 45.495117 63.6912774 45.495117 10.2654839 86.077184 59.1127935 84.8601982 59.1127935 46.3911088 12.7462627 46.3911088 62.7963235 88.0104051 62.7963235 86.8888801 61.5450608 88.1203804 61.5528673"></polygon>
                        <path d="M123.461537,0.836963134 C115.54778,0.836963134 109.110036,7.26724885 109.110036,15.1712811 C109.110036,23.075871 115.54778,29.5061567 123.461537,29.5061567 C131.374736,29.5061567 137.81248,23.075871 137.81248,15.1712811 C137.81248,7.26724885 131.374736,0.836963134 123.461537,0.836963134 M123.461537,30.3425622 C115.086107,30.3425622 108.272661,23.5370092 108.272661,15.1712811 C108.272661,6.8061106 115.086107,0 123.461537,0 C131.836968,0 138.650413,6.8061106 138.650413,15.1712811 C138.650413,23.5370092 131.836968,30.3425622 123.461537,30.3425622" id="Fill-15" fill="#27AAE1"></path>
                    </g>
                    <g id="Page-1" transform="translate(525.000000, 0.000000)">
                        <path d="M53.75,113.845919 L53.75,94.4312026 L57.284375,94.4312026 L57.284375,98.0781515 C59.0066964,95.3608118 61.2191964,94.0021419 63.9223214,94.0021419 C66.5299107,94.0021419 68.3058036,95.3608118 69.2508929,98.0781515 C70.925,95.3488897 73.1017857,93.9842588 75.78125,93.9842588 C77.5035714,93.9842588 78.8370536,94.4878324 79.7816964,95.4948904 C80.7267857,96.501993 81.1991071,97.9113316 81.1991071,99.7228618 L81.1991071,113.845919 L77.646875,113.845919 L77.646875,100.27706 C77.646875,98.0603129 76.7678571,96.9519173 75.0098214,96.9519173 C73.1799107,96.9519173 71.2602679,98.2450158 69.2508929,100.831257 L69.2508929,113.845919 L65.6986607,113.845919 L65.6986607,100.27706 C65.6986607,98.0483908 64.8013393,96.9340342 63.0075893,96.9340342 C61.2254464,96.9340342 59.3174107,98.2330937 57.284375,100.831257 L57.284375,113.845919 L53.75,113.845919 Z" id="Fill-1" fill="#808080"></path>
                        <path d="M99.6540179,113.845919 L99.6540179,110.198971 C97.7758929,112.928232 95.4977679,114.292863 92.8183036,114.292863 C91.1200893,114.292863 89.7683036,113.759529 88.7638393,112.692861 C87.759375,111.626192 87.2566964,110.187049 87.2566964,108.375474 L87.2566964,94.4312026 L90.7910714,94.4312026 L90.7910714,107.231357 C90.7910714,108.685358 91.0035714,109.719286 91.428125,110.333049 C91.8526786,110.946857 92.5611607,111.253717 93.5540179,111.253717 C95.7066964,111.253717 97.7401786,109.841442 99.6540179,107.016804 L99.6540179,94.4312026 L103.187946,94.4312026 L103.187946,113.845919 L99.6540179,113.845919 Z M90.7910714,90.9093908 L95.1147321,85.1707879 L98.5415179,85.1707879 L92.7825893,90.9093908 L90.7910714,90.9093908 Z M97.10625,90.9093908 L101.412054,85.1707879 L104.838839,85.1707879 L99.0977679,90.9093908 L97.10625,90.9093908 Z" id="Fill-2" fill="#808080"></path>
                        <path d="M108.823661,113.845919 L108.823661,85.6176871 L112.358036,85.6176871 L112.358036,98.0781515 C114.223661,95.3608118 116.508482,94.0021419 119.211161,94.0021419 C120.897768,94.0021419 122.243304,94.5354761 123.248214,95.602189 C124.252679,96.6688574 124.754911,98.1019956 124.754911,99.9016482 L124.754911,113.845919 L121.220536,113.845919 L121.220536,101.04581 C121.220536,99.6036857 121.008482,98.575764 120.583929,97.9619559 C120.159375,97.3481923 119.456696,97.0412882 118.475893,97.0412882 C116.311161,97.0412882 114.271875,98.4536074 112.358036,101.278201 L112.358036,113.845919 L108.823661,113.845919 Z" id="Fill-3" fill="#808080"></path>
                        <path d="M144.634821,113.220234 C142.266518,113.935335 140.239286,114.292863 138.552679,114.292863 C135.682143,114.292863 133.341071,113.34239 131.529018,111.441445 C129.716964,109.540499 128.811161,107.076414 128.811161,104.04919 C128.811161,101.105376 129.609375,98.6919596 131.20625,96.8088971 C132.802679,94.9257901 134.845089,93.9842588 137.333036,93.9842588 C139.688839,93.9842588 141.509821,94.818536 142.795536,96.4870904 C144.081696,98.1556449 144.724554,100.527378 144.724554,103.602246 L144.70625,104.692759 L132.416964,104.692759 C132.93125,109.305128 135.197768,111.61129 139.216518,111.61129 C140.687946,111.61129 142.49375,111.217995 144.634821,110.431362 L144.634821,113.220234 Z M132.578571,102.046951 L141.172321,102.046951 C141.172321,98.4357243 139.820536,96.6301107 137.117411,96.6301107 C134.402679,96.6301107 132.889732,98.4357243 132.578571,102.046951 Z" id="Fill-4" fill="#808080"></path>
                        <polygon id="Fill-5" fill="#808080" points="150.667857 113.845919 154.202143 113.845919 154.202143 85.6176871 150.667857 85.6176871"></polygon>
                        <polygon id="Fill-6" fill="#808080" points="160.254018 120.907471 163.411607 113.845919 155.876339 94.4312026 159.697768 94.4312026 165.277232 109.054809 171.233482 94.4312026 174.570536 94.4312026 163.931696 120.907471"></polygon>
                        <polygon id="Fill-7" fill="#1C75BC" points="0 113.845074 0 83.1209055 6.06245536 83.1209055 14.6040179 106.890644 23.3955804 83.1209055 28.8121875 83.1209055 28.8121875 113.845074 24.7288839 113.845074 24.7288839 88.8505669 16.2289732 111.789898 11.9998661 111.789898 3.74995536 88.7882875 3.74995536 113.845074"></polygon>
                        <polygon id="Fill-8" fill="#1C75BC" points="36.41625 113.845074 40.7912054 113.845074 40.7912054 83.1209055 36.41625 83.1209055"></polygon>
                        <polygon id="Fill-9" fill="#1C75BC" points="14.0170982 90.8334544 11.6367411 68.7538015 24.4233482 71.2383051"></polygon>
                        <path d="M120.666964,66.2039044 L37.3338393,52.7702353" id="Stroke-10" stroke="#B3B3B3" stroke-width="3" stroke-linecap="round" stroke-linejoin="round"></path>
                        <path d="M88.9745536,79.7169353 L96.8754464,75.7655735" id="Stroke-11" stroke="#B3B3B3" stroke-width="3" stroke-linecap="round" stroke-linejoin="round"></path>
                        <path d="M103.541964,76.8032375 L96.875,75.7660184" id="Stroke-12" stroke="#B3B3B3" stroke-width="3" stroke-linecap="round" stroke-linejoin="round"></path>
                        <polygon id="Fill-13" fill="#CCCCCC" points="117.173661 69.8597059 96.8754464 77.8644787 96.8754464 10.4202353 117.173661 18.4244743"></polygon>
                        <polygon id="Fill-14" fill="#E6E6E6" points="96.8754464 10.4202353 63.0450893 74.1262904 96.8754464 77.8643897"></polygon>
                        <polygon id="Fill-15" fill="#E6E6E6" points="56.7290179 15.5471654 41.8710268 65.7630551 63.0446429 74.1262904"></polygon>
                        <polygon id="Fill-16" fill="#F2F2F2" points="63.0450893 74.1262904 56.7294643 15.5471654 96.8754464 10.4202353"></polygon>
                        <path d="M56.8665179,0.00444852941 C57.140625,0.0916397059 57.3196429,0.275808824 57.3915179,0.561849265 L66.0651786,60.1912721 L90.3022321,1.99338603 C90.3022321,1.99338603 90.5933036,1.54497426 90.9892857,1.58545588 C91.3049107,1.61793015 91.5473214,1.74115441 91.5901786,2.26608088 L89.64375,79.7335728 L88.3049107,79.7002088 L90.1616071,5.81378309 L66.3696429,62.9413529 C66.3696429,62.9413529 65.359375,63.8270551 65.0883929,62.7812059 L56.4433036,3.34440441 L37.9616518,53.0024485 L36.7059375,52.5384669 L56.1008929,0.425724265 C56.1008929,0.425724265 56.3428571,-0.0507132353 56.8665179,0.00444852941 Z" id="Fill-17" fill="#B3B3B3"></path>
                        <path d="M101.989732,5.21945956 L102.115625,5.25371324 L121.483929,12.5590882 C121.741518,12.6872059 121.889732,12.8967316 121.916518,13.1903346 L121.336161,66.2114669 L119.996875,66.1967868 L120.572321,13.6418603 L102.571429,6.85251471 L104.211607,76.7876676 L102.872768,76.8188518 L101.209375,5.89341176 C101.254464,5.28885662 101.39375,5.17897794 101.989732,5.21945956 Z" id="Fill-18" fill="#B3B3B3"></path>
                    </g>
                </g>
            </g>
        </g>
    </g>
</svg>