<svg width="700" height="138" xmlns="http://www.w3.org/2000/svg">
  <g fill="none" fill-rule="evenodd">
    <path d="M227.935 128.64h-2.346l-.618 3.097h2.346l.618-3.097zm3.591-1.244l-.124.712c-.031.184-.106.318-.223.404-.117.085-.296.128-.536.128h-1.311l-.618 3.097h1.7c.184 0 .316.052.395.157.079.104.1.286.061.546l-.085.542h-2.251l-.798 4.018h-.77a.468.468 0 0 1-.228-.057.541.541 0 0 1-.275-.38.766.766 0 0 1 0-.294l.674-3.287h-2.346l-.675 3.372c-.038.234-.13.4-.276.499a.864.864 0 0 1-.494.147h-.76l.808-4.018h-1.387c-.177 0-.306-.053-.385-.157-.079-.105-.1-.287-.062-.546l.077-.542h1.938l.617-3.097h-2.204l.124-.703c.031-.184.106-.32.223-.409.117-.088.296-.133.536-.133h1.501l.684-3.4a.73.73 0 0 1 .751-.609h.76l-.798 4.01h2.346l.798-4.01h.751c.184 0 .328.06.432.181.105.12.141.272.11.456l-.694 3.373h2.014zm10.944 2.802c0 1.19-.128 2.221-.385 3.092-.256.871-.606 1.591-1.05 2.162-.443.57-.967.994-1.572 1.273a4.587 4.587 0 0 1-1.942.418c-.697 0-1.345-.14-1.943-.418a4.24 4.24 0 0 1-1.563-1.273c-.443-.57-.792-1.29-1.045-2.162-.253-.87-.38-1.901-.38-3.092 0-1.19.127-2.223.38-3.097.253-.874.602-1.598 1.045-2.17.443-.574.964-1 1.563-1.278a4.545 4.545 0 0 1 1.942-.419c.69 0 1.338.14 1.943.419a4.201 4.201 0 0 1 1.573 1.277c.443.573.793 1.297 1.05 2.171.256.874.384 1.906.384 3.097zm-1.757 0c0-1.039-.088-1.911-.262-2.617-.174-.706-.408-1.275-.703-1.706-.294-.43-.635-.739-1.021-.926a2.739 2.739 0 0 0-2.413 0c-.386.187-.725.496-1.016.927-.292.43-.525.999-.699 1.705-.174.706-.261 1.578-.261 2.617s.087 1.91.261 2.612c.174.704.407 1.27.699 1.701.29.43.63.74 1.016.926a2.739 2.739 0 0 0 2.413 0c.386-.187.727-.495 1.021-.926.295-.43.53-.997.703-1.7.174-.704.262-1.574.262-2.613zm12.597-6.812v.76c0 .216-.024.393-.072.532-.047.14-.093.257-.137.352l-5.643 11.371a1.26 1.26 0 0 1-.343.423c-.145.117-.338.176-.579.176h-1.216l5.719-11.229a4.244 4.244 0 0 1 .542-.817h-7.106a.385.385 0 0 1-.285-.128.407.407 0 0 1-.124-.29v-1.15h9.244zm11.2 6.812c0 1.19-.128 2.221-.385 3.092-.256.871-.606 1.591-1.05 2.162-.443.57-.967.994-1.572 1.273a4.587 4.587 0 0 1-1.942.418c-.697 0-1.345-.14-1.943-.418a4.24 4.24 0 0 1-1.563-1.273c-.443-.57-.792-1.29-1.045-2.162-.253-.87-.38-1.901-.38-3.092 0-1.19.127-2.223.38-3.097.253-.874.602-1.598 1.045-2.17.443-.574.964-1 1.563-1.278a4.545 4.545 0 0 1 1.942-.419c.69 0 1.338.14 1.943.419a4.201 4.201 0 0 1 1.572 1.277c.444.573.794 1.297 1.05 2.171.257.874.385 1.906.385 3.097zm-1.757 0c0-1.039-.088-1.911-.262-2.617-.174-.706-.408-1.275-.703-1.706-.294-.43-.635-.739-1.021-.926a2.739 2.739 0 0 0-2.413 0c-.386.187-.725.496-1.017.927-.29.43-.524.999-.698 1.705-.174.706-.261 1.578-.261 2.617s.087 1.91.261 2.612c.174.704.407 1.27.698 1.701.292.43.63.74 1.017.926a2.739 2.739 0 0 0 2.413 0c.386-.187.727-.495 1.021-.926.295-.43.53-.997.703-1.7.174-.704.262-1.574.262-2.613zm12.596-6.812v.76c0 .216-.023.393-.07.532-.048.14-.094.257-.139.352l-5.642 11.371a1.26 1.26 0 0 1-.342.423c-.146.117-.34.176-.58.176h-1.216l5.719-11.229a4.244 4.244 0 0 1 .541-.817h-7.106a.385.385 0 0 1-.285-.128.407.407 0 0 1-.123-.29v-1.15h9.243zm11.201 6.812c0 1.19-.128 2.221-.385 3.092-.256.871-.606 1.591-1.05 2.162-.443.57-.967.994-1.572 1.273a4.587 4.587 0 0 1-1.942.418c-.697 0-1.345-.14-1.943-.418a4.24 4.24 0 0 1-1.563-1.273c-.443-.57-.792-1.29-1.045-2.162-.253-.87-.38-1.901-.38-3.092 0-1.19.127-2.223.38-3.097.253-.874.602-1.598 1.045-2.17.443-.574.964-1 1.563-1.278a4.545 4.545 0 0 1 1.942-.419c.69 0 1.338.14 1.943.419a4.201 4.201 0 0 1 1.572 1.277c.444.573.794 1.297 1.05 2.171.257.874.385 1.906.385 3.097zm-1.757 0c0-1.039-.088-1.911-.262-2.617-.174-.706-.408-1.275-.703-1.706-.294-.43-.635-.739-1.021-.926a2.739 2.739 0 0 0-2.413 0c-.386.187-.725.496-1.017.927-.29.43-.524.999-.698 1.705-.174.706-.261 1.578-.261 2.617s.087 1.91.261 2.612c.174.704.407 1.27.699 1.701.29.43.63.74 1.016.926a2.739 2.739 0 0 0 2.413 0c.386-.187.727-.495 1.021-.926.295-.43.53-.997.703-1.7.174-.704.262-1.574.262-2.613zm12.596-6.812v.76c0 .216-.023.393-.07.532-.048.14-.094.257-.139.352l-5.642 11.371a1.26 1.26 0 0 1-.343.423c-.145.117-.338.176-.579.176H289.4l5.719-11.229a4.244 4.244 0 0 1 .541-.817h-7.106a.385.385 0 0 1-.284-.128.407.407 0 0 1-.124-.29v-1.15h9.243zM416.935 128.64h-2.346l-.618 3.097h2.346l.618-3.097zm3.591-1.244l-.124.712c-.031.184-.106.318-.223.404-.117.085-.296.128-.536.128h-1.311l-.618 3.097h1.7c.184 0 .316.052.395.157.079.104.1.286.061.546l-.085.542h-2.252l-.798 4.018h-.769a.468.468 0 0 1-.228-.057.541.541 0 0 1-.276-.38.766.766 0 0 1 0-.294l.675-3.287h-2.346l-.675 3.372c-.038.234-.13.4-.275.499a.864.864 0 0 1-.495.147h-.76l.808-4.018h-1.387c-.177 0-.306-.053-.385-.157-.079-.105-.1-.287-.062-.546l.077-.542h1.938l.617-3.097h-2.204l.123-.703c.032-.184.107-.32.224-.409.117-.088.296-.133.537-.133h1.5l.685-3.4a.73.73 0 0 1 .75-.609h.76l-.798 4.01h2.346l.798-4.01h.751c.184 0 .328.06.432.181.105.12.141.272.11.456l-.694 3.373h2.014zm10.63 8.103l-.009 1.501h-8.388v-13.614h8.388v1.502h-6.546v4.522h5.301v1.444h-5.3v4.645h6.555zm6.327.247c.457 0 .87-.073 1.24-.219a2.78 2.78 0 0 0 .95-.607c.263-.26.466-.567.608-.922a3.08 3.08 0 0 0 .214-1.159c0-.443-.07-.844-.209-1.202a2.544 2.544 0 0 0-.594-.912 2.605 2.605 0 0 0-.916-.575 3.303 3.303 0 0 0-1.169-.199c-.456 0-.868.078-1.235.233a2.723 2.723 0 0 0-1.525 1.539 2.912 2.912 0 0 0-.204 1.078c0 .437.063.836.19 1.197.127.361.312.671.556.931.244.26.541.46.893.603.351.143.752.214 1.202.214zm-.988-7.258l-.346.442c-.111.142-.217.283-.319.422a3.937 3.937 0 0 1 1.065-.513 4.23 4.23 0 0 1 1.263-.18c.551 0 1.07.09 1.558.27.488.181.914.444 1.278.79.364.344.654.769.869 1.272.215.504.323 1.078.323 1.724 0 .628-.114 1.21-.342 1.749a4.273 4.273 0 0 1-.955 1.405c-.408.4-.9.713-1.472.941a5.084 5.084 0 0 1-1.895.342c-.685 0-1.305-.11-1.863-.328a3.959 3.959 0 0 1-1.42-.93c-.39-.403-.69-.89-.902-1.464-.212-.573-.318-1.214-.318-1.924 0-.595.13-1.23.394-1.904.263-.675.682-1.395 1.258-2.162l3.459-4.645c.088-.114.21-.21.365-.29.155-.079.334-.118.537-.118h1.501l-4.038 5.101zm16.654 7.011l-.01 1.501h-8.388v-13.614h8.389v1.502h-6.546v4.522h5.301v1.444h-5.301v4.645h6.555zm6.327.247c.456 0 .87-.073 1.24-.219a2.78 2.78 0 0 0 .95-.607c.263-.26.465-.567.608-.922a3.08 3.08 0 0 0 .214-1.159c0-.443-.07-.844-.21-1.202a2.544 2.544 0 0 0-.593-.912 2.605 2.605 0 0 0-.917-.575 3.303 3.303 0 0 0-1.168-.199c-.457 0-.868.078-1.236.233-.367.155-.679.364-.935.627a2.723 2.723 0 0 0-.59.912 2.912 2.912 0 0 0-.204 1.078c0 .437.064.836.19 1.197.127.361.312.671.556.931.244.26.542.46.893.603.352.143.752.214 1.202.214zm-.988-7.258l-.347.442c-.11.142-.217.283-.318.422a3.937 3.937 0 0 1 1.064-.513 4.23 4.23 0 0 1 1.264-.18c.55 0 1.07.09 1.558.27.487.181.913.444 1.277.79.364.344.654.769.87 1.272.215.504.322 1.078.322 1.724 0 .628-.113 1.21-.341 1.749a4.273 4.273 0 0 1-.955 1.405c-.409.4-.9.713-1.473.941a5.084 5.084 0 0 1-1.895.342c-.684 0-1.305-.11-1.862-.328a3.959 3.959 0 0 1-1.42-.93c-.39-.403-.69-.89-.903-1.464-.212-.573-.318-1.214-.318-1.924 0-.595.131-1.23.394-1.904.263-.675.683-1.395 1.259-2.162l3.458-4.645c.089-.114.21-.21.366-.29.155-.079.334-.118.536-.118h1.502l-4.038 5.101zm16.654 7.011l-.01 1.501h-8.389v-13.614h8.389v1.502h-6.546v4.522h5.301v1.444h-5.3v4.645h6.555zm6.327.247c.456 0 .869-.073 1.24-.219a2.78 2.78 0 0 0 .95-.607c.262-.26.465-.567.607-.922a3.08 3.08 0 0 0 .214-1.159c0-.443-.07-.844-.209-1.202a2.544 2.544 0 0 0-.594-.912 2.605 2.605 0 0 0-.917-.575 3.303 3.303 0 0 0-1.168-.199c-.456 0-.868.078-1.235.233a2.723 2.723 0 0 0-1.525 1.539 2.912 2.912 0 0 0-.204 1.078c0 .437.063.836.19 1.197.127.361.312.671.556.931.244.26.541.46.893.603.351.143.752.214 1.202.214zm-.988-7.258l-.347.442c-.111.142-.217.283-.319.422a3.937 3.937 0 0 1 1.065-.513 4.23 4.23 0 0 1 1.263-.18c.551 0 1.07.09 1.558.27.488.181.914.444 1.278.79.364.344.654.769.869 1.272.215.504.323 1.078.323 1.724 0 .628-.114 1.21-.342 1.749a4.273 4.273 0 0 1-.955 1.405c-.408.4-.9.713-1.472.941a5.084 5.084 0 0 1-1.895.342c-.685 0-1.305-.11-1.863-.328a3.959 3.959 0 0 1-1.42-.93c-.39-.403-.69-.89-.902-1.464-.212-.573-.319-1.214-.319-1.924 0-.595.132-1.23.395-1.904.263-.675.682-1.395 1.258-2.162l3.459-4.645c.088-.114.21-.21.365-.29.155-.079.334-.118.537-.118h1.501l-4.037 5.101zM615.935 128.64h-2.346l-.618 3.097h2.346l.618-3.097zm3.591-1.244l-.123.712c-.032.184-.107.318-.224.404-.117.085-.296.128-.536.128h-1.312l-.617 3.097h1.7c.184 0 .316.052.395.157.079.104.1.286.062.546l-.086.542h-2.251l-.798 4.018h-.77a.468.468 0 0 1-.228-.057.541.541 0 0 1-.276-.38.766.766 0 0 1 0-.294l.675-3.287h-2.346l-.675 3.372c-.038.234-.13.4-.275.499a.864.864 0 0 1-.495.147h-.76l.808-4.018h-1.387c-.177 0-.306-.053-.385-.157-.079-.105-.1-.287-.061-.546l.075-.542h1.938l.618-3.097h-2.204l.123-.703c.032-.184.107-.32.224-.409.117-.088.296-.133.536-.133h1.501l.685-3.4a.73.73 0 0 1 .75-.609h.76l-.798 4.01h2.346l.798-4.01h.751c.184 0 .328.06.432.181.105.12.141.272.11.456l-.694 3.373h2.014zm7.011 8.141c.526 0 .978-.06 1.358-.18.38-.12.692-.29.936-.509a1.97 1.97 0 0 0 .537-.779c.114-.3.171-.631.171-.992 0-.704-.25-1.26-.75-1.668-.5-.408-1.251-.612-2.252-.612h-2.945v4.74h2.945zm-2.945-10.697v4.645h2.432c.52 0 .97-.056 1.354-.17.383-.115.7-.273.95-.476.25-.202.435-.448.556-.736.12-.288.18-.603.18-.945 0-.804-.24-1.392-.722-1.762-.481-.37-1.229-.556-2.242-.556h-2.508zm2.508-1.454c.836 0 1.556.083 2.161.248.605.164 1.102.398 1.492.703.39.304.676.676.86 1.116.183.44.275.935.275 1.486a2.893 2.893 0 0 1-.627 1.824 3.354 3.354 0 0 1-.793.718c-.32.212-.695.384-1.126.518 1 .19 1.753.546 2.256 1.068.504.523.756 1.208.756 2.057 0 .576-.107 1.102-.319 1.577a3.379 3.379 0 0 1-.93 1.226c-.41.342-.911.606-1.507.793-.595.187-1.272.28-2.032.28h-4.808v-13.614h4.342zm8.892 4c0 .43.062.815.185 1.154.124.34.301.626.532.86.231.234.513.412.846.532.332.12.704.18 1.116.18.456 0 .86-.074 1.211-.223.352-.149.648-.346.889-.594.24-.247.424-.531.55-.855.127-.323.19-.658.19-1.007 0-.424-.068-.809-.204-1.154a2.546 2.546 0 0 0-.565-.879 2.47 2.47 0 0 0-.86-.555 2.992 2.992 0 0 0-1.097-.195c-.418 0-.798.068-1.14.204a2.66 2.66 0 0 0-.884.566c-.247.24-.436.528-.57.864-.133.336-.199.703-.199 1.102zm3.952 4.19c.14-.184.27-.358.39-.523.12-.165.234-.33.342-.494-.349.279-.741.49-1.179.637-.437.145-.899.218-1.386.218-.514 0-1-.085-1.459-.256a3.507 3.507 0 0 1-1.211-.756 3.632 3.632 0 0 1-.831-1.225c-.206-.485-.309-1.04-.309-1.667 0-.596.11-1.153.332-1.672.222-.52.532-.973.931-1.359.4-.386.874-.69 1.426-.912a4.818 4.818 0 0 1 1.814-.332c.652 0 1.244.107 1.777.323.532.215.987.516 1.367.902s.673.849.88 1.387c.205.538.308 1.134.308 1.786 0 .393-.036.765-.11 1.116a6.081 6.081 0 0 1-.313 1.036 7.43 7.43 0 0 1-.498 1.007c-.197.332-.418.673-.666 1.021l-3.315 4.788a.868.868 0 0 1-.351.29c-.153.073-.327.109-.523.109h-1.558l4.142-5.424zm10.897 3.961c.525 0 .978-.06 1.358-.18.38-.12.692-.29.936-.509a1.97 1.97 0 0 0 .537-.779c.114-.3.17-.631.17-.992 0-.704-.25-1.26-.75-1.668-.5-.408-1.25-.612-2.251-.612h-2.946v4.74h2.946zm-2.946-10.697v4.645h2.433c.519 0 .97-.056 1.353-.17.383-.115.7-.273.95-.476.25-.202.436-.448.556-.736.12-.288.18-.603.18-.945 0-.804-.24-1.392-.721-1.762-.482-.37-1.23-.556-2.242-.556h-2.509zm2.509-1.454c.836 0 1.556.083 2.16.248.606.164 1.103.398 1.492.703.39.304.676.676.86 1.116.184.44.275.935.275 1.486a2.893 2.893 0 0 1-.627 1.824 3.354 3.354 0 0 1-.793.718c-.32.212-.695.384-1.125.518 1 .19 1.752.546 2.256 1.068.503.523.755 1.208.755 2.057 0 .576-.106 1.102-.318 1.577a3.379 3.379 0 0 1-.931 1.226c-.409.342-.91.606-1.506.793-.595.187-1.273.28-2.033.28h-4.807v-13.614h4.341zm12.72 12.151c.526 0 .978-.06 1.358-.18.38-.12.692-.29.936-.509a1.97 1.97 0 0 0 .537-.779c.114-.3.171-.631.171-.992 0-.704-.25-1.26-.75-1.668-.5-.408-1.251-.612-2.252-.612h-2.945v4.74h2.945zm-2.945-10.697v4.645h2.432c.52 0 .97-.056 1.354-.17.383-.115.7-.273.95-.476.25-.202.435-.448.556-.736.12-.288.18-.603.18-.945 0-.804-.24-1.392-.722-1.762-.481-.37-1.229-.556-2.242-.556h-2.508zm2.508-1.454c.836 0 1.556.083 2.161.248.605.164 1.102.398 1.492.703.39.304.676.676.86 1.116.183.44.275.935.275 1.486a2.893 2.893 0 0 1-.627 1.824 3.354 3.354 0 0 1-.793.718c-.32.212-.695.384-1.126.518 1 .19 1.753.546 2.256 1.068.504.523.756 1.208.756 2.057 0 .576-.107 1.102-.319 1.577a3.379 3.379 0 0 1-.93 1.226c-.41.342-.911.606-1.506.793-.596.187-1.273.28-2.034.28h-4.807v-13.614h4.342zm12.72 12.151c.526 0 .979-.06 1.359-.18s.692-.29.936-.509a1.97 1.97 0 0 0 .537-.779c.114-.3.17-.631.17-.992 0-.704-.25-1.26-.75-1.668-.5-.408-1.25-.612-2.251-.612h-2.946v4.74h2.946zm-2.945-10.697v4.645h2.433c.519 0 .97-.056 1.353-.17.383-.115.7-.273.95-.476.25-.202.436-.448.556-.736.12-.288.18-.603.18-.945 0-.804-.24-1.392-.721-1.762-.482-.37-1.23-.556-2.242-.556h-2.509zm2.509-1.454c.836 0 1.556.083 2.16.248.606.164 1.103.398 1.492.703.39.304.676.676.86 1.116.184.44.276.935.276 1.486a2.893 2.893 0 0 1-.627 1.824 3.354 3.354 0 0 1-.794.718c-.32.212-.695.384-1.125.518 1 .19 1.752.546 2.256 1.068.503.523.755 1.208.755 2.057 0 .576-.106 1.102-.318 1.577a3.379 3.379 0 0 1-.931 1.226c-.409.342-.91.606-1.506.793-.595.187-1.273.28-2.033.28h-4.807v-13.614h4.341zm16.34 12.113L690.3 137h-8.389v-13.614h8.389v1.502h-6.546v4.522h5.302v1.444h-5.302v4.645h6.556zM14.935 128.64h-2.347l-.617 3.097h2.347l.617-3.097zm3.591-1.244l-.123.712c-.032.184-.107.318-.224.404-.117.085-.296.128-.537.128h-1.31l-.618 3.097h1.7c.184 0 .316.052.395.157.079.104.1.286.061.546l-.085.542h-2.252L14.736 137h-.77a.468.468 0 0 1-.228-.057.541.541 0 0 1-.275-.38.766.766 0 0 1 0-.294l.674-3.287H11.79l-.674 3.372c-.038.234-.13.4-.275.499a.864.864 0 0 1-.494.147h-.76l.807-4.018H9.007c-.177 0-.306-.053-.385-.157-.079-.105-.1-.287-.062-.546l.076-.542h1.939l.617-3.097H8.988l.123-.703c.032-.184.107-.32.224-.409.117-.088.296-.133.536-.133h1.502l.684-3.4a.73.73 0 0 1 .75-.609h.76l-.798 4.01h2.347l.798-4.01h.75c.184 0 .328.06.432.181.105.12.141.272.11.456l-.694 3.373h2.014zm10.944 2.802c0 1.19-.128 2.221-.385 3.092-.256.871-.606 1.591-1.05 2.162-.443.57-.967.994-1.572 1.273a4.587 4.587 0 0 1-1.943.418c-.696 0-1.344-.14-1.942-.418a4.24 4.24 0 0 1-1.563-1.273c-.443-.57-.792-1.29-1.045-2.162-.253-.87-.38-1.901-.38-3.092 0-1.19.127-2.223.38-3.097.253-.874.602-1.598 1.045-2.17.443-.574.964-1 1.563-1.278a4.545 4.545 0 0 1 1.942-.419c.69 0 1.338.14 1.943.419a4.201 4.201 0 0 1 1.572 1.277c.444.573.794 1.297 1.05 2.171.257.874.385 1.906.385 3.097zm-1.758 0c0-1.039-.087-1.911-.26-2.617-.175-.706-.41-1.275-.704-1.706-.294-.43-.635-.739-1.021-.926a2.739 2.739 0 0 0-2.413 0c-.386.187-.725.496-1.017.927-.29.43-.524.999-.698 1.705-.174.706-.261 1.578-.261 2.617s.087 1.91.261 2.612c.174.704.407 1.27.698 1.701.292.43.63.74 1.017.926a2.739 2.739 0 0 0 2.413 0c.386-.187.727-.495 1.021-.926.295-.43.53-.997.703-1.7.174-.704.261-1.574.261-2.613zm12.598-6.812v.76c0 .216-.024.393-.072.532-.047.14-.093.257-.138.352l-5.642 11.371a1.26 1.26 0 0 1-.343.423c-.145.117-.338.176-.579.176H32.32l5.719-11.229a4.244 4.244 0 0 1 .541-.817h-7.105a.385.385 0 0 1-.286-.128.407.407 0 0 1-.123-.29v-1.15h9.244zm9.718 8.56l-2.137-5.538a12.623 12.623 0 0 1-.399-1.273c-.134.513-.27.94-.409 1.282l-2.137 5.529h5.082zM53.866 137h-1.425a.613.613 0 0 1-.399-.124.76.76 0 0 1-.228-.313l-1.273-3.287h-6.108l-1.273 3.287a.667.667 0 0 1-.219.304.607.607 0 0 1-.399.133h-1.425l5.444-13.614h1.861L53.867 137zm10.507-6.802c0 1.19-.128 2.221-.385 3.092-.256.871-.606 1.591-1.05 2.162-.443.57-.967.994-1.572 1.273a4.587 4.587 0 0 1-1.943.418c-.696 0-1.344-.14-1.942-.418a4.24 4.24 0 0 1-1.563-1.273c-.443-.57-.792-1.29-1.045-2.162-.253-.87-.38-1.901-.38-3.092 0-1.19.127-2.223.38-3.097.253-.874.602-1.598 1.045-2.17.443-.574.964-1 1.563-1.278a4.545 4.545 0 0 1 1.942-.419c.69 0 1.338.14 1.943.419a4.201 4.201 0 0 1 1.572 1.277c.444.573.794 1.297 1.05 2.171.257.874.385 1.906.385 3.097zm-1.758 0c0-1.039-.087-1.911-.26-2.617-.175-.706-.41-1.275-.704-1.706-.294-.43-.635-.739-1.021-.926a2.739 2.739 0 0 0-2.413 0c-.386.187-.725.496-1.017.927-.29.43-.524.999-.698 1.705-.174.706-.261 1.578-.261 2.617s.087 1.91.261 2.612c.174.704.407 1.27.698 1.701.292.43.63.74 1.017.926a2.739 2.739 0 0 0 2.413 0c.386-.187.727-.495 1.021-.926.295-.43.53-.997.703-1.7.174-.704.261-1.574.261-2.613zm13.623 3.99c.102 0 .19.041.266.124l.732.788a5.824 5.824 0 0 1-2.028 1.51c-.795.362-1.756.542-2.883.542-.976 0-1.862-.17-2.66-.508a5.85 5.85 0 0 1-2.043-1.425 6.442 6.442 0 0 1-1.311-2.2c-.31-.855-.466-1.795-.466-2.821 0-1.026.162-1.966.485-2.822a6.457 6.457 0 0 1 1.363-2.204 6.096 6.096 0 0 1 2.105-1.43c.817-.338 1.719-.508 2.707-.508.969 0 1.824.156 2.565.466.741.31 1.393.731 1.957 1.263l-.608.846a.498.498 0 0 1-.147.157.422.422 0 0 1-.243.062c-.114 0-.253-.062-.417-.186a6.35 6.35 0 0 0-.646-.413 5.016 5.016 0 0 0-.998-.413c-.399-.124-.89-.186-1.472-.186-.704 0-1.346.122-1.929.366a4.21 4.21 0 0 0-1.506 1.06 4.887 4.887 0 0 0-.983 1.69c-.234.666-.352 1.416-.352 2.252 0 .849.122 1.605.366 2.27.244.666.577 1.228.998 1.687.42.459.918.809 1.491 1.05.573.24 1.192.36 1.858.36.405 0 .77-.023 1.097-.07a4.48 4.48 0 0 0 .902-.224 3.8 3.8 0 0 0 .77-.385c.237-.155.473-.34.707-.555a.491.491 0 0 1 .323-.143zm6.907 1.615c.443 0 .84-.062 1.192-.185a2.54 2.54 0 0 0 .893-.523 2.26 2.26 0 0 0 .56-.807c.13-.314.195-.66.195-1.04 0-.47-.077-.87-.232-1.202a2.213 2.213 0 0 0-.627-.813 2.588 2.588 0 0 0-.907-.46 3.872 3.872 0 0 0-1.074-.148c-.374 0-.731.05-1.073.148a2.588 2.588 0 0 0-.908.46c-.263.21-.472.48-.627.813-.155.332-.233.733-.233 1.202 0 .38.065.726.195 1.04.13.313.317.582.56.807.245.225.542.4.894.523.351.123.749.185 1.192.185zm0-11.257c-.405 0-.762.06-1.069.18a2.062 2.062 0 0 0-1.235 1.225 2.522 2.522 0 0 0-.156.894c0 .31.044.61.132.902.09.291.232.55.428.774.196.225.451.406.765.542.313.136.692.204 1.135.204.443 0 .822-.068 1.135-.204.314-.136.569-.317.765-.542.196-.225.339-.483.427-.774.09-.291.134-.592.134-.903 0-.316-.053-.614-.157-.892a2.062 2.062 0 0 0-1.235-1.226 2.918 2.918 0 0 0-1.069-.18zm1.948 5.358c.848.24 1.5.642 1.956 1.206.457.564.684 1.286.684 2.166 0 .595-.112 1.132-.337 1.61a3.523 3.523 0 0 1-.94 1.221 4.26 4.26 0 0 1-1.449.774 6.08 6.08 0 0 1-1.862.271 6.08 6.08 0 0 1-1.862-.27 4.312 4.312 0 0 1-1.454-.775 3.449 3.449 0 0 1-.94-1.22 3.784 3.784 0 0 1-.332-1.611c0-.88.227-1.602.683-2.166.457-.564 1.109-.966 1.958-1.207-.716-.266-1.256-.663-1.62-1.192-.364-.529-.547-1.16-.547-1.895a3.365 3.365 0 0 1 1.13-2.546 3.95 3.95 0 0 1 1.298-.76 4.892 4.892 0 0 1 1.686-.276c.614 0 1.175.092 1.681.276.507.184.941.437 1.302.76a3.365 3.365 0 0 1 1.13 2.546c0 .735-.182 1.366-.546 1.895-.364.53-.904.926-1.62 1.192z" fill="#070707"/>
    <circle fill="#07A0C8" cx="48" cy="49" r="48"/>
    <path fill="#B9BBBE" d="M651 0l49 98h-98z"/>
    <path fill="#E6E6E6" d="M423.667 24h50v50h-50z"/>
    <circle fill="#070707" cx="259.833" cy="49.5" r="35.5"/>
  </g>
</svg>
